<?xml version="1.0" encoding="utf-8" standalone="no"?>
<!DOCTYPE svg PUBLIC "-//W3C//DTD SVG 1.1//EN"
  "http://www.w3.org/Graphics/SVG/1.1/DTD/svg11.dtd">
<svg xmlns:xlink="http://www.w3.org/1999/xlink" width="720pt" height="576pt" viewBox="0 0 720 576" xmlns="http://www.w3.org/2000/svg" version="1.1">
 <metadata>
  <rdf:RDF xmlns:dc="http://purl.org/dc/elements/1.1/" xmlns:cc="http://creativecommons.org/ns#" xmlns:rdf="http://www.w3.org/1999/02/22-rdf-syntax-ns#">
   <cc:Work>
    <dc:type rdf:resource="http://purl.org/dc/dcmitype/StillImage"/>
    <dc:date>2023-09-21T13:10:00.963835</dc:date>
    <dc:format>image/svg+xml</dc:format>
    <dc:creator>
     <cc:Agent>
      <dc:title>Matplotlib v3.5.1, https://matplotlib.org/</dc:title>
     </cc:Agent>
    </dc:creator>
   </cc:Work>
  </rdf:RDF>
 </metadata>
 <defs>
  <style type="text/css">*{stroke-linejoin: round; stroke-linecap: butt}</style>
 </defs>
 <g id="figure_1">
  <g id="patch_1">
   <path d="M 0 576 
L 720 576 
L 720 0 
L 0 0 
z
" style="fill: #ffffff"/>
  </g>
  <g id="axes_1">
   <g id="patch_2">
    <path d="M 62.6181 526.84 
L 709.2 526.84 
L 709.2 44.02125 
L 62.6181 44.02125 
z
" style="fill: #ffffff"/>
   </g>
   <g id="matplotlib.axis_1">
    <g id="xtick_1">
     <g id="line2d_1">
      <path d="M 92.008187 526.84 
L 92.008187 44.02125 
" clip-path="url(#pa703ab3741)" style="fill: none; stroke: #cccccc; stroke-width: 0.8; stroke-linecap: round"/>
     </g>
     <g id="line2d_2">
      <defs>
       <path id="m94e48165f3" d="M 0 0 
L 0 3.5 
" style="stroke: #262626; stroke-width: 0.8"/>
      </defs>
      <g>
       <use xlink:href="#m94e48165f3" x="92.008187" y="526.84" style="fill: #262626; stroke: #262626; stroke-width: 0.8"/>
      </g>
     </g>
     <g id="text_1">
      <!-- 0 -->
      <g style="fill: #262626" transform="translate(89.227718 540.997813)scale(0.1 -0.1)">
       <defs>
        <path id="ArialMT-30" d="M 266 2259 
Q 266 3072 433 3567 
Q 600 4063 929 4331 
Q 1259 4600 1759 4600 
Q 2128 4600 2406 4451 
Q 2684 4303 2865 4023 
Q 3047 3744 3150 3342 
Q 3253 2941 3253 2259 
Q 3253 1453 3087 958 
Q 2922 463 2592 192 
Q 2263 -78 1759 -78 
Q 1097 -78 719 397 
Q 266 969 266 2259 
z
M 844 2259 
Q 844 1131 1108 757 
Q 1372 384 1759 384 
Q 2147 384 2411 759 
Q 2675 1134 2675 2259 
Q 2675 3391 2411 3762 
Q 2147 4134 1753 4134 
Q 1366 4134 1134 3806 
Q 844 3388 844 2259 
z
" transform="scale(0.015625)"/>
       </defs>
       <use xlink:href="#ArialMT-30"/>
      </g>
     </g>
    </g>
    <g id="xtick_2">
     <g id="line2d_3">
      <path d="M 165.852625 526.84 
L 165.852625 44.02125 
" clip-path="url(#pa703ab3741)" style="fill: none; stroke: #cccccc; stroke-width: 0.8; stroke-linecap: round"/>
     </g>
     <g id="line2d_4">
      <g>
       <use xlink:href="#m94e48165f3" x="165.852625" y="526.84" style="fill: #262626; stroke: #262626; stroke-width: 0.8"/>
      </g>
     </g>
     <g id="text_2">
      <!-- 25 -->
      <g style="fill: #262626" transform="translate(160.291687 540.997813)scale(0.1 -0.1)">
       <defs>
        <path id="ArialMT-32" d="M 3222 541 
L 3222 0 
L 194 0 
Q 188 203 259 391 
Q 375 700 629 1000 
Q 884 1300 1366 1694 
Q 2113 2306 2375 2664 
Q 2638 3022 2638 3341 
Q 2638 3675 2398 3904 
Q 2159 4134 1775 4134 
Q 1369 4134 1125 3890 
Q 881 3647 878 3216 
L 300 3275 
Q 359 3922 746 4261 
Q 1134 4600 1788 4600 
Q 2447 4600 2831 4234 
Q 3216 3869 3216 3328 
Q 3216 3053 3103 2787 
Q 2991 2522 2730 2228 
Q 2469 1934 1863 1422 
Q 1356 997 1212 845 
Q 1069 694 975 541 
L 3222 541 
z
" transform="scale(0.015625)"/>
        <path id="ArialMT-35" d="M 266 1200 
L 856 1250 
Q 922 819 1161 601 
Q 1400 384 1738 384 
Q 2144 384 2425 690 
Q 2706 997 2706 1503 
Q 2706 1984 2436 2262 
Q 2166 2541 1728 2541 
Q 1456 2541 1237 2417 
Q 1019 2294 894 2097 
L 366 2166 
L 809 4519 
L 3088 4519 
L 3088 3981 
L 1259 3981 
L 1013 2750 
Q 1425 3038 1878 3038 
Q 2478 3038 2890 2622 
Q 3303 2206 3303 1553 
Q 3303 931 2941 478 
Q 2500 -78 1738 -78 
Q 1113 -78 717 272 
Q 322 622 266 1200 
z
" transform="scale(0.015625)"/>
       </defs>
       <use xlink:href="#ArialMT-32"/>
       <use xlink:href="#ArialMT-35" x="55.615234"/>
      </g>
     </g>
    </g>
    <g id="xtick_3">
     <g id="line2d_5">
      <path d="M 239.697063 526.84 
L 239.697063 44.02125 
" clip-path="url(#pa703ab3741)" style="fill: none; stroke: #cccccc; stroke-width: 0.8; stroke-linecap: round"/>
     </g>
     <g id="line2d_6">
      <g>
       <use xlink:href="#m94e48165f3" x="239.697063" y="526.84" style="fill: #262626; stroke: #262626; stroke-width: 0.8"/>
      </g>
     </g>
     <g id="text_3">
      <!-- 50 -->
      <g style="fill: #262626" transform="translate(234.136125 540.997813)scale(0.1 -0.1)">
       <use xlink:href="#ArialMT-35"/>
       <use xlink:href="#ArialMT-30" x="55.615234"/>
      </g>
     </g>
    </g>
    <g id="xtick_4">
     <g id="line2d_7">
      <path d="M 313.541501 526.84 
L 313.541501 44.02125 
" clip-path="url(#pa703ab3741)" style="fill: none; stroke: #cccccc; stroke-width: 0.8; stroke-linecap: round"/>
     </g>
     <g id="line2d_8">
      <g>
       <use xlink:href="#m94e48165f3" x="313.541501" y="526.84" style="fill: #262626; stroke: #262626; stroke-width: 0.8"/>
      </g>
     </g>
     <g id="text_4">
      <!-- 75 -->
      <g style="fill: #262626" transform="translate(307.980563 540.997813)scale(0.1 -0.1)">
       <defs>
        <path id="ArialMT-37" d="M 303 3981 
L 303 4522 
L 3269 4522 
L 3269 4084 
Q 2831 3619 2401 2847 
Q 1972 2075 1738 1259 
Q 1569 684 1522 0 
L 944 0 
Q 953 541 1156 1306 
Q 1359 2072 1739 2783 
Q 2119 3494 2547 3981 
L 303 3981 
z
" transform="scale(0.015625)"/>
       </defs>
       <use xlink:href="#ArialMT-37"/>
       <use xlink:href="#ArialMT-35" x="55.615234"/>
      </g>
     </g>
    </g>
    <g id="xtick_5">
     <g id="line2d_9">
      <path d="M 387.385939 526.84 
L 387.385939 44.02125 
" clip-path="url(#pa703ab3741)" style="fill: none; stroke: #cccccc; stroke-width: 0.8; stroke-linecap: round"/>
     </g>
     <g id="line2d_10">
      <g>
       <use xlink:href="#m94e48165f3" x="387.385939" y="526.84" style="fill: #262626; stroke: #262626; stroke-width: 0.8"/>
      </g>
     </g>
     <g id="text_5">
      <!-- 100 -->
      <g style="fill: #262626" transform="translate(379.044533 540.997813)scale(0.1 -0.1)">
       <defs>
        <path id="ArialMT-31" d="M 2384 0 
L 1822 0 
L 1822 3584 
Q 1619 3391 1289 3197 
Q 959 3003 697 2906 
L 697 3450 
Q 1169 3672 1522 3987 
Q 1875 4303 2022 4600 
L 2384 4600 
L 2384 0 
z
" transform="scale(0.015625)"/>
       </defs>
       <use xlink:href="#ArialMT-31"/>
       <use xlink:href="#ArialMT-30" x="55.615234"/>
       <use xlink:href="#ArialMT-30" x="111.230469"/>
      </g>
     </g>
    </g>
    <g id="xtick_6">
     <g id="line2d_11">
      <path d="M 461.230377 526.84 
L 461.230377 44.02125 
" clip-path="url(#pa703ab3741)" style="fill: none; stroke: #cccccc; stroke-width: 0.8; stroke-linecap: round"/>
     </g>
     <g id="line2d_12">
      <g>
       <use xlink:href="#m94e48165f3" x="461.230377" y="526.84" style="fill: #262626; stroke: #262626; stroke-width: 0.8"/>
      </g>
     </g>
     <g id="text_6">
      <!-- 125 -->
      <g style="fill: #262626" transform="translate(452.888971 540.997813)scale(0.1 -0.1)">
       <use xlink:href="#ArialMT-31"/>
       <use xlink:href="#ArialMT-32" x="55.615234"/>
       <use xlink:href="#ArialMT-35" x="111.230469"/>
      </g>
     </g>
    </g>
    <g id="xtick_7">
     <g id="line2d_13">
      <path d="M 535.074815 526.84 
L 535.074815 44.02125 
" clip-path="url(#pa703ab3741)" style="fill: none; stroke: #cccccc; stroke-width: 0.8; stroke-linecap: round"/>
     </g>
     <g id="line2d_14">
      <g>
       <use xlink:href="#m94e48165f3" x="535.074815" y="526.84" style="fill: #262626; stroke: #262626; stroke-width: 0.8"/>
      </g>
     </g>
     <g id="text_7">
      <!-- 150 -->
      <g style="fill: #262626" transform="translate(526.733409 540.997813)scale(0.1 -0.1)">
       <use xlink:href="#ArialMT-31"/>
       <use xlink:href="#ArialMT-35" x="55.615234"/>
       <use xlink:href="#ArialMT-30" x="111.230469"/>
      </g>
     </g>
    </g>
    <g id="xtick_8">
     <g id="line2d_15">
      <path d="M 608.919253 526.84 
L 608.919253 44.02125 
" clip-path="url(#pa703ab3741)" style="fill: none; stroke: #cccccc; stroke-width: 0.8; stroke-linecap: round"/>
     </g>
     <g id="line2d_16">
      <g>
       <use xlink:href="#m94e48165f3" x="608.919253" y="526.84" style="fill: #262626; stroke: #262626; stroke-width: 0.8"/>
      </g>
     </g>
     <g id="text_8">
      <!-- 175 -->
      <g style="fill: #262626" transform="translate(600.577847 540.997813)scale(0.1 -0.1)">
       <use xlink:href="#ArialMT-31"/>
       <use xlink:href="#ArialMT-37" x="55.615234"/>
       <use xlink:href="#ArialMT-35" x="111.230469"/>
      </g>
     </g>
    </g>
    <g id="xtick_9">
     <g id="line2d_17">
      <path d="M 682.763691 526.84 
L 682.763691 44.02125 
" clip-path="url(#pa703ab3741)" style="fill: none; stroke: #cccccc; stroke-width: 0.8; stroke-linecap: round"/>
     </g>
     <g id="line2d_18">
      <g>
       <use xlink:href="#m94e48165f3" x="682.763691" y="526.84" style="fill: #262626; stroke: #262626; stroke-width: 0.8"/>
      </g>
     </g>
     <g id="text_9">
      <!-- 200 -->
      <g style="fill: #262626" transform="translate(674.422285 540.997813)scale(0.1 -0.1)">
       <use xlink:href="#ArialMT-32"/>
       <use xlink:href="#ArialMT-30" x="55.615234"/>
       <use xlink:href="#ArialMT-30" x="111.230469"/>
      </g>
     </g>
    </g>
    <g id="text_10">
     <!-- pr. 50 epochs -->
     <g style="fill: #262626" transform="translate(325.868425 561.360312)scale(0.2 -0.2)">
      <defs>
       <path id="ArialMT-70" d="M 422 -1272 
L 422 3319 
L 934 3319 
L 934 2888 
Q 1116 3141 1344 3267 
Q 1572 3394 1897 3394 
Q 2322 3394 2647 3175 
Q 2972 2956 3137 2557 
Q 3303 2159 3303 1684 
Q 3303 1175 3120 767 
Q 2938 359 2589 142 
Q 2241 -75 1856 -75 
Q 1575 -75 1351 44 
Q 1128 163 984 344 
L 984 -1272 
L 422 -1272 
z
M 931 1641 
Q 931 1000 1190 694 
Q 1450 388 1819 388 
Q 2194 388 2461 705 
Q 2728 1022 2728 1688 
Q 2728 2322 2467 2637 
Q 2206 2953 1844 2953 
Q 1484 2953 1207 2617 
Q 931 2281 931 1641 
z
" transform="scale(0.015625)"/>
       <path id="ArialMT-72" d="M 416 0 
L 416 3319 
L 922 3319 
L 922 2816 
Q 1116 3169 1280 3281 
Q 1444 3394 1641 3394 
Q 1925 3394 2219 3213 
L 2025 2691 
Q 1819 2813 1613 2813 
Q 1428 2813 1281 2702 
Q 1134 2591 1072 2394 
Q 978 2094 978 1738 
L 978 0 
L 416 0 
z
" transform="scale(0.015625)"/>
       <path id="ArialMT-2e" d="M 581 0 
L 581 641 
L 1222 641 
L 1222 0 
L 581 0 
z
" transform="scale(0.015625)"/>
       <path id="ArialMT-20" transform="scale(0.015625)"/>
       <path id="ArialMT-65" d="M 2694 1069 
L 3275 997 
Q 3138 488 2766 206 
Q 2394 -75 1816 -75 
Q 1088 -75 661 373 
Q 234 822 234 1631 
Q 234 2469 665 2931 
Q 1097 3394 1784 3394 
Q 2450 3394 2872 2941 
Q 3294 2488 3294 1666 
Q 3294 1616 3291 1516 
L 816 1516 
Q 847 969 1125 678 
Q 1403 388 1819 388 
Q 2128 388 2347 550 
Q 2566 713 2694 1069 
z
M 847 1978 
L 2700 1978 
Q 2663 2397 2488 2606 
Q 2219 2931 1791 2931 
Q 1403 2931 1139 2672 
Q 875 2413 847 1978 
z
" transform="scale(0.015625)"/>
       <path id="ArialMT-6f" d="M 213 1659 
Q 213 2581 725 3025 
Q 1153 3394 1769 3394 
Q 2453 3394 2887 2945 
Q 3322 2497 3322 1706 
Q 3322 1066 3130 698 
Q 2938 331 2570 128 
Q 2203 -75 1769 -75 
Q 1072 -75 642 372 
Q 213 819 213 1659 
z
M 791 1659 
Q 791 1022 1069 705 
Q 1347 388 1769 388 
Q 2188 388 2466 706 
Q 2744 1025 2744 1678 
Q 2744 2294 2464 2611 
Q 2184 2928 1769 2928 
Q 1347 2928 1069 2612 
Q 791 2297 791 1659 
z
" transform="scale(0.015625)"/>
       <path id="ArialMT-63" d="M 2588 1216 
L 3141 1144 
Q 3050 572 2676 248 
Q 2303 -75 1759 -75 
Q 1078 -75 664 370 
Q 250 816 250 1647 
Q 250 2184 428 2587 
Q 606 2991 970 3192 
Q 1334 3394 1763 3394 
Q 2303 3394 2647 3120 
Q 2991 2847 3088 2344 
L 2541 2259 
Q 2463 2594 2264 2762 
Q 2066 2931 1784 2931 
Q 1359 2931 1093 2626 
Q 828 2322 828 1663 
Q 828 994 1084 691 
Q 1341 388 1753 388 
Q 2084 388 2306 591 
Q 2528 794 2588 1216 
z
" transform="scale(0.015625)"/>
       <path id="ArialMT-68" d="M 422 0 
L 422 4581 
L 984 4581 
L 984 2938 
Q 1378 3394 1978 3394 
Q 2347 3394 2619 3248 
Q 2891 3103 3008 2847 
Q 3125 2591 3125 2103 
L 3125 0 
L 2563 0 
L 2563 2103 
Q 2563 2525 2380 2717 
Q 2197 2909 1863 2909 
Q 1613 2909 1392 2779 
Q 1172 2650 1078 2428 
Q 984 2206 984 1816 
L 984 0 
L 422 0 
z
" transform="scale(0.015625)"/>
       <path id="ArialMT-73" d="M 197 991 
L 753 1078 
Q 800 744 1014 566 
Q 1228 388 1613 388 
Q 2000 388 2187 545 
Q 2375 703 2375 916 
Q 2375 1106 2209 1216 
Q 2094 1291 1634 1406 
Q 1016 1563 777 1677 
Q 538 1791 414 1992 
Q 291 2194 291 2438 
Q 291 2659 392 2848 
Q 494 3038 669 3163 
Q 800 3259 1026 3326 
Q 1253 3394 1513 3394 
Q 1903 3394 2198 3281 
Q 2494 3169 2634 2976 
Q 2775 2784 2828 2463 
L 2278 2388 
Q 2241 2644 2061 2787 
Q 1881 2931 1553 2931 
Q 1166 2931 1000 2803 
Q 834 2675 834 2503 
Q 834 2394 903 2306 
Q 972 2216 1119 2156 
Q 1203 2125 1616 2013 
Q 2213 1853 2448 1751 
Q 2684 1650 2818 1456 
Q 2953 1263 2953 975 
Q 2953 694 2789 445 
Q 2625 197 2315 61 
Q 2006 -75 1616 -75 
Q 969 -75 630 194 
Q 291 463 197 991 
z
" transform="scale(0.015625)"/>
      </defs>
      <use xlink:href="#ArialMT-70"/>
      <use xlink:href="#ArialMT-72" x="55.615234"/>
      <use xlink:href="#ArialMT-2e" x="83.416016"/>
      <use xlink:href="#ArialMT-20" x="111.199219"/>
      <use xlink:href="#ArialMT-35" x="138.982422"/>
      <use xlink:href="#ArialMT-30" x="194.597656"/>
      <use xlink:href="#ArialMT-20" x="250.212891"/>
      <use xlink:href="#ArialMT-65" x="277.996094"/>
      <use xlink:href="#ArialMT-70" x="333.611328"/>
      <use xlink:href="#ArialMT-6f" x="389.226562"/>
      <use xlink:href="#ArialMT-63" x="444.841797"/>
      <use xlink:href="#ArialMT-68" x="494.841797"/>
      <use xlink:href="#ArialMT-73" x="550.457031"/>
     </g>
    </g>
   </g>
   <g id="matplotlib.axis_2">
    <g id="ytick_1">
     <g id="line2d_19">
      <path d="M 62.6181 448.719205 
L 709.2 448.719205 
" clip-path="url(#pa703ab3741)" style="fill: none; stroke: #cccccc; stroke-width: 0.8; stroke-linecap: round"/>
     </g>
     <g id="line2d_20">
      <defs>
       <path id="mcf09e264b2" d="M 0 0 
L -3.5 0 
" style="stroke: #262626; stroke-width: 0.8"/>
      </defs>
      <g>
       <use xlink:href="#mcf09e264b2" x="62.6181" y="448.719205" style="fill: #262626; stroke: #262626; stroke-width: 0.8"/>
      </g>
     </g>
     <g id="text_11">
      <!-- $\mathdefault{-10^{2}}$ -->
      <g style="fill: #262626" transform="translate(34.0181 453.875455)scale(0.1 -0.1)">
       <defs>
        <path id="ArialMT-2212" d="M 3381 1997 
L 356 1997 
L 356 2522 
L 3381 2522 
L 3381 1997 
z
" transform="scale(0.015625)"/>
       </defs>
       <use xlink:href="#ArialMT-2212" transform="translate(0 0.99375)"/>
       <use xlink:href="#ArialMT-31" transform="translate(58.398438 0.99375)"/>
       <use xlink:href="#ArialMT-30" transform="translate(114.013672 0.99375)"/>
       <use xlink:href="#ArialMT-32" transform="translate(171.37125 70.6875)scale(0.7)"/>
      </g>
     </g>
    </g>
    <g id="ytick_2">
     <g id="line2d_21">
      <path d="M 62.6181 328.475104 
L 709.2 328.475104 
" clip-path="url(#pa703ab3741)" style="fill: none; stroke: #cccccc; stroke-width: 0.8; stroke-linecap: round"/>
     </g>
     <g id="line2d_22">
      <g>
       <use xlink:href="#mcf09e264b2" x="62.6181" y="328.475104" style="fill: #262626; stroke: #262626; stroke-width: 0.8"/>
      </g>
     </g>
     <g id="text_12">
      <!-- $\mathdefault{-10^{1}}$ -->
      <g style="fill: #262626" transform="translate(34.0181 333.631354)scale(0.1 -0.1)">
       <use xlink:href="#ArialMT-2212" transform="translate(0 0.99375)"/>
       <use xlink:href="#ArialMT-31" transform="translate(58.398438 0.99375)"/>
       <use xlink:href="#ArialMT-30" transform="translate(114.013672 0.99375)"/>
       <use xlink:href="#ArialMT-31" transform="translate(171.37125 70.6875)scale(0.7)"/>
      </g>
     </g>
    </g>
    <g id="ytick_3">
     <g id="line2d_23">
      <path d="M 62.6181 177.625806 
L 709.2 177.625806 
" clip-path="url(#pa703ab3741)" style="fill: none; stroke: #cccccc; stroke-width: 0.8; stroke-linecap: round"/>
     </g>
     <g id="line2d_24">
      <g>
       <use xlink:href="#mcf09e264b2" x="62.6181" y="177.625806" style="fill: #262626; stroke: #262626; stroke-width: 0.8"/>
      </g>
     </g>
     <g id="text_13">
      <!-- $\mathdefault{-10^{0}}$ -->
      <g style="fill: #262626" transform="translate(34.0181 182.782056)scale(0.1 -0.1)">
       <use xlink:href="#ArialMT-2212" transform="translate(0 0.99375)"/>
       <use xlink:href="#ArialMT-31" transform="translate(58.398438 0.99375)"/>
       <use xlink:href="#ArialMT-30" transform="translate(114.013672 0.99375)"/>
       <use xlink:href="#ArialMT-30" transform="translate(171.37125 70.6875)scale(0.7)"/>
      </g>
     </g>
    </g>
    <g id="ytick_4">
     <g id="line2d_25">
      <path d="M 62.6181 110.823528 
L 709.2 110.823528 
" clip-path="url(#pa703ab3741)" style="fill: none; stroke: #cccccc; stroke-width: 0.8; stroke-linecap: round"/>
     </g>
     <g id="line2d_26">
      <g>
       <use xlink:href="#mcf09e264b2" x="62.6181" y="110.823528" style="fill: #262626; stroke: #262626; stroke-width: 0.8"/>
      </g>
     </g>
     <g id="text_14">
      <!-- $\mathdefault{0}$ -->
      <g style="fill: #262626" transform="translate(50.0181 114.402434)scale(0.1 -0.1)">
       <use xlink:href="#ArialMT-30" transform="translate(0 0.125)"/>
      </g>
     </g>
    </g>
    <g id="text_15">
     <!-- log likelihood -->
     <g style="fill: #262626" transform="translate(25.808725 343.244688)rotate(-90)scale(0.2 -0.2)">
      <defs>
       <path id="ArialMT-6c" d="M 409 0 
L 409 4581 
L 972 4581 
L 972 0 
L 409 0 
z
" transform="scale(0.015625)"/>
       <path id="ArialMT-67" d="M 319 -275 
L 866 -356 
Q 900 -609 1056 -725 
Q 1266 -881 1628 -881 
Q 2019 -881 2231 -725 
Q 2444 -569 2519 -288 
Q 2563 -116 2559 434 
Q 2191 0 1641 0 
Q 956 0 581 494 
Q 206 988 206 1678 
Q 206 2153 378 2554 
Q 550 2956 876 3175 
Q 1203 3394 1644 3394 
Q 2231 3394 2613 2919 
L 2613 3319 
L 3131 3319 
L 3131 450 
Q 3131 -325 2973 -648 
Q 2816 -972 2473 -1159 
Q 2131 -1347 1631 -1347 
Q 1038 -1347 672 -1080 
Q 306 -813 319 -275 
z
M 784 1719 
Q 784 1066 1043 766 
Q 1303 466 1694 466 
Q 2081 466 2343 764 
Q 2606 1063 2606 1700 
Q 2606 2309 2336 2618 
Q 2066 2928 1684 2928 
Q 1309 2928 1046 2623 
Q 784 2319 784 1719 
z
" transform="scale(0.015625)"/>
       <path id="ArialMT-69" d="M 425 3934 
L 425 4581 
L 988 4581 
L 988 3934 
L 425 3934 
z
M 425 0 
L 425 3319 
L 988 3319 
L 988 0 
L 425 0 
z
" transform="scale(0.015625)"/>
       <path id="ArialMT-6b" d="M 425 0 
L 425 4581 
L 988 4581 
L 988 1969 
L 2319 3319 
L 3047 3319 
L 1778 2088 
L 3175 0 
L 2481 0 
L 1384 1697 
L 988 1316 
L 988 0 
L 425 0 
z
" transform="scale(0.015625)"/>
       <path id="ArialMT-64" d="M 2575 0 
L 2575 419 
Q 2259 -75 1647 -75 
Q 1250 -75 917 144 
Q 584 363 401 755 
Q 219 1147 219 1656 
Q 219 2153 384 2558 
Q 550 2963 881 3178 
Q 1213 3394 1622 3394 
Q 1922 3394 2156 3267 
Q 2391 3141 2538 2938 
L 2538 4581 
L 3097 4581 
L 3097 0 
L 2575 0 
z
M 797 1656 
Q 797 1019 1065 703 
Q 1334 388 1700 388 
Q 2069 388 2326 689 
Q 2584 991 2584 1609 
Q 2584 2291 2321 2609 
Q 2059 2928 1675 2928 
Q 1300 2928 1048 2622 
Q 797 2316 797 1656 
z
" transform="scale(0.015625)"/>
      </defs>
      <use xlink:href="#ArialMT-6c"/>
      <use xlink:href="#ArialMT-6f" x="22.216797"/>
      <use xlink:href="#ArialMT-67" x="77.832031"/>
      <use xlink:href="#ArialMT-20" x="133.447266"/>
      <use xlink:href="#ArialMT-6c" x="161.230469"/>
      <use xlink:href="#ArialMT-69" x="183.447266"/>
      <use xlink:href="#ArialMT-6b" x="205.664062"/>
      <use xlink:href="#ArialMT-65" x="255.664062"/>
      <use xlink:href="#ArialMT-6c" x="311.279297"/>
      <use xlink:href="#ArialMT-69" x="333.496094"/>
      <use xlink:href="#ArialMT-68" x="355.712891"/>
      <use xlink:href="#ArialMT-6f" x="411.328125"/>
      <use xlink:href="#ArialMT-6f" x="466.943359"/>
      <use xlink:href="#ArialMT-64" x="522.558594"/>
     </g>
    </g>
   </g>
   <g id="line2d_27">
    <path d="M 92.008187 377.820188 
L 94.961964 316.062192 
L 97.915742 313.553392 
L 100.869519 315.484872 
L 103.823297 319.880905 
L 106.777074 325.720786 
L 109.730852 332.504996 
L 112.684629 339.668626 
L 115.638407 347.273804 
L 121.545962 363.428583 
L 130.407294 388.930264 
L 142.222405 423.42414 
L 145.176182 431.853468 
L 151.083737 447.680583 
L 154.037515 455.162913 
L 156.991292 462.287414 
L 159.94507 468.880533 
L 165.852625 480.734593 
L 168.806402 485.727001 
L 174.713957 494.700295 
L 177.667735 498.241406 
L 180.621512 501.336324 
L 186.529067 506.480833 
L 189.482845 508.492396 
L 192.436622 510.14257 
L 198.344177 512.951001 
L 201.297955 513.937 
L 204.251733 514.787712 
L 213.113065 516.392024 
L 216.066843 516.775733 
L 219.02062 516.742517 
L 221.974398 516.916843 
L 227.881953 517.059623 
L 233.789508 516.50233 
L 236.743285 516.525812 
L 242.65084 515.846324 
L 245.604618 515.621409 
L 248.558395 515.130901 
L 251.512173 514.854111 
L 254.46595 514.255521 
L 257.419728 513.986224 
L 260.373505 513.600418 
L 269.234838 512.02285 
L 272.188616 511.585383 
L 275.142393 510.874273 
L 281.049948 509.942104 
L 284.003726 509.069504 
L 286.957503 508.607477 
L 289.911281 507.954086 
L 295.818836 506.882627 
L 298.772613 506.185456 
L 301.726391 505.674151 
L 310.587723 503.872606 
L 313.541501 503.317309 
L 316.495278 502.542062 
L 331.264166 499.471214 
L 337.171721 498.173058 
L 340.125499 497.653183 
L 346.033054 496.277521 
L 357.848164 493.76812 
L 363.755719 492.230906 
L 372.617051 490.223949 
L 375.570829 489.607244 
L 378.524606 488.692531 
L 384.432161 487.441084 
L 396.247271 484.869377 
L 405.108604 482.546095 
L 408.062382 482.023463 
L 411.016159 481.268879 
L 419.877492 479.407387 
L 422.831269 478.588613 
L 425.785047 478.058412 
L 428.738824 477.202177 
L 431.692602 476.591923 
L 434.646379 475.813502 
L 437.600157 475.200794 
L 440.553934 474.408091 
L 446.461489 473.244339 
L 452.369044 471.901671 
L 455.322822 470.996686 
L 458.276599 470.521171 
L 467.137932 468.355318 
L 473.045487 466.973078 
L 475.999265 466.255902 
L 478.953042 465.711367 
L 481.90682 464.879273 
L 484.860597 464.320503 
L 487.814375 463.59102 
L 499.629485 461.090598 
L 505.53704 459.488833 
L 508.490817 459.007345 
L 514.398372 457.481478 
L 517.35215 456.927357 
L 532.121038 453.33852 
L 535.074815 452.841427 
L 538.028593 452.074592 
L 540.98237 451.480402 
L 543.936148 450.666339 
L 546.889925 450.138913 
L 549.843703 449.330966 
L 558.705035 447.3306 
L 561.658813 446.844915 
L 564.61259 445.985914 
L 576.4277 443.237492 
L 588.24281 440.630632 
L 591.196588 439.861212 
L 594.150366 439.336816 
L 600.057921 437.864852 
L 603.011698 437.422437 
L 608.919253 436.130598 
L 611.873031 435.633846 
L 620.734363 433.726034 
L 623.688141 433.203341 
L 626.641918 432.306302 
L 632.549473 431.15466 
L 635.503251 430.655072 
L 644.364583 428.722704 
L 650.272138 427.493937 
L 656.179693 426.521931 
L 659.133471 425.840946 
L 673.902359 423.157887 
L 676.856136 422.403183 
L 679.809914 421.956908 
L 679.809914 421.956908 
" clip-path="url(#pa703ab3741)" style="fill: none; stroke: #1f77b4; stroke-opacity: 0.8; stroke-width: 2.5; stroke-linecap: round"/>
   </g>
   <g id="LineCollection_1">
    <path d="M 92.008187 385.433183 
L 92.008187 368.904778 
" clip-path="url(#pa703ab3741)" style="fill: none; stroke: #1f77b4; stroke-opacity: 0.8; stroke-width: 2"/>
    <path d="M 151.083737 451.509029 
L 151.083737 443.549104 
" clip-path="url(#pa703ab3741)" style="fill: none; stroke: #1f77b4; stroke-opacity: 0.8; stroke-width: 2"/>
    <path d="M 210.159288 524.29973 
L 210.159288 505.998013 
" clip-path="url(#pa703ab3741)" style="fill: none; stroke: #1f77b4; stroke-opacity: 0.8; stroke-width: 2"/>
    <path d="M 269.234838 522.122067 
L 269.234838 499.490602 
" clip-path="url(#pa703ab3741)" style="fill: none; stroke: #1f77b4; stroke-opacity: 0.8; stroke-width: 2"/>
    <path d="M 328.310388 510.888781 
L 328.310388 486.504238 
" clip-path="url(#pa703ab3741)" style="fill: none; stroke: #1f77b4; stroke-opacity: 0.8; stroke-width: 2"/>
    <path d="M 387.385939 498.060363 
L 387.385939 472.457015 
" clip-path="url(#pa703ab3741)" style="fill: none; stroke: #1f77b4; stroke-opacity: 0.8; stroke-width: 2"/>
    <path d="M 446.461489 484.827733 
L 446.461489 458.336759 
" clip-path="url(#pa703ab3741)" style="fill: none; stroke: #1f77b4; stroke-opacity: 0.8; stroke-width: 2"/>
    <path d="M 505.53704 470.739639 
L 505.53704 445.12897 
" clip-path="url(#pa703ab3741)" style="fill: none; stroke: #1f77b4; stroke-opacity: 0.8; stroke-width: 2"/>
    <path d="M 564.61259 456.457698 
L 564.61259 432.873736 
" clip-path="url(#pa703ab3741)" style="fill: none; stroke: #1f77b4; stroke-opacity: 0.8; stroke-width: 2"/>
    <path d="M 623.688141 442.912783 
L 623.688141 421.266658 
" clip-path="url(#pa703ab3741)" style="fill: none; stroke: #1f77b4; stroke-opacity: 0.8; stroke-width: 2"/>
   </g>
   <g id="line2d_28">
    <defs>
     <path id="m4cd17c1ab0" d="M 3 0 
L -3 -0 
" style="stroke: #1f77b4; stroke-opacity: 0.8"/>
    </defs>
    <g clip-path="url(#pa703ab3741)">
     <use xlink:href="#m4cd17c1ab0" x="92.008187" y="385.433183" style="fill: #1f77b4; fill-opacity: 0.8; stroke: #1f77b4; stroke-opacity: 0.8"/>
     <use xlink:href="#m4cd17c1ab0" x="151.083737" y="451.509029" style="fill: #1f77b4; fill-opacity: 0.8; stroke: #1f77b4; stroke-opacity: 0.8"/>
     <use xlink:href="#m4cd17c1ab0" x="210.159288" y="524.29973" style="fill: #1f77b4; fill-opacity: 0.8; stroke: #1f77b4; stroke-opacity: 0.8"/>
     <use xlink:href="#m4cd17c1ab0" x="269.234838" y="522.122067" style="fill: #1f77b4; fill-opacity: 0.8; stroke: #1f77b4; stroke-opacity: 0.8"/>
     <use xlink:href="#m4cd17c1ab0" x="328.310388" y="510.888781" style="fill: #1f77b4; fill-opacity: 0.8; stroke: #1f77b4; stroke-opacity: 0.8"/>
     <use xlink:href="#m4cd17c1ab0" x="387.385939" y="498.060363" style="fill: #1f77b4; fill-opacity: 0.8; stroke: #1f77b4; stroke-opacity: 0.8"/>
     <use xlink:href="#m4cd17c1ab0" x="446.461489" y="484.827733" style="fill: #1f77b4; fill-opacity: 0.8; stroke: #1f77b4; stroke-opacity: 0.8"/>
     <use xlink:href="#m4cd17c1ab0" x="505.53704" y="470.739639" style="fill: #1f77b4; fill-opacity: 0.8; stroke: #1f77b4; stroke-opacity: 0.8"/>
     <use xlink:href="#m4cd17c1ab0" x="564.61259" y="456.457698" style="fill: #1f77b4; fill-opacity: 0.8; stroke: #1f77b4; stroke-opacity: 0.8"/>
     <use xlink:href="#m4cd17c1ab0" x="623.688141" y="442.912783" style="fill: #1f77b4; fill-opacity: 0.8; stroke: #1f77b4; stroke-opacity: 0.8"/>
    </g>
   </g>
   <g id="line2d_29">
    <g clip-path="url(#pa703ab3741)">
     <use xlink:href="#m4cd17c1ab0" x="92.008187" y="368.904778" style="fill: #1f77b4; fill-opacity: 0.8; stroke: #1f77b4; stroke-opacity: 0.8"/>
     <use xlink:href="#m4cd17c1ab0" x="151.083737" y="443.549104" style="fill: #1f77b4; fill-opacity: 0.8; stroke: #1f77b4; stroke-opacity: 0.8"/>
     <use xlink:href="#m4cd17c1ab0" x="210.159288" y="505.998013" style="fill: #1f77b4; fill-opacity: 0.8; stroke: #1f77b4; stroke-opacity: 0.8"/>
     <use xlink:href="#m4cd17c1ab0" x="269.234838" y="499.490602" style="fill: #1f77b4; fill-opacity: 0.8; stroke: #1f77b4; stroke-opacity: 0.8"/>
     <use xlink:href="#m4cd17c1ab0" x="328.310388" y="486.504238" style="fill: #1f77b4; fill-opacity: 0.8; stroke: #1f77b4; stroke-opacity: 0.8"/>
     <use xlink:href="#m4cd17c1ab0" x="387.385939" y="472.457015" style="fill: #1f77b4; fill-opacity: 0.8; stroke: #1f77b4; stroke-opacity: 0.8"/>
     <use xlink:href="#m4cd17c1ab0" x="446.461489" y="458.336759" style="fill: #1f77b4; fill-opacity: 0.8; stroke: #1f77b4; stroke-opacity: 0.8"/>
     <use xlink:href="#m4cd17c1ab0" x="505.53704" y="445.12897" style="fill: #1f77b4; fill-opacity: 0.8; stroke: #1f77b4; stroke-opacity: 0.8"/>
     <use xlink:href="#m4cd17c1ab0" x="564.61259" y="432.873736" style="fill: #1f77b4; fill-opacity: 0.8; stroke: #1f77b4; stroke-opacity: 0.8"/>
     <use xlink:href="#m4cd17c1ab0" x="623.688141" y="421.266658" style="fill: #1f77b4; fill-opacity: 0.8; stroke: #1f77b4; stroke-opacity: 0.8"/>
    </g>
   </g>
   <g id="line2d_30">
    <path d="M 92.008187 377.790426 
L 94.961964 315.985685 
L 97.915742 313.362051 
L 100.869519 315.034846 
L 103.823297 318.899105 
L 106.777074 323.734381 
L 109.730852 328.812638 
L 112.684629 333.398888 
L 115.638407 337.494458 
L 118.592184 340.795251 
L 121.545962 343.149594 
L 124.499739 344.670461 
L 127.453517 345.018431 
L 130.407294 344.609993 
L 133.361072 343.55069 
L 136.31485 341.921163 
L 142.222405 336.98052 
L 148.12996 330.637983 
L 154.037515 323.664954 
L 156.991292 319.714443 
L 171.76018 301.00983 
L 174.713957 297.521424 
L 177.667735 293.803272 
L 183.57529 287.114287 
L 186.529067 284.272848 
L 192.436622 278.291301 
L 198.344177 273.1161 
L 207.20551 266.413862 
L 213.113065 262.657066 
L 219.02062 259.296287 
L 221.974398 257.81767 
L 236.743285 251.772882 
L 239.697063 250.902598 
L 242.65084 249.687759 
L 245.604618 248.714793 
L 257.419728 245.490762 
L 260.373505 244.71864 
L 263.327283 242.984968 
L 269.234838 240.049375 
L 272.188616 238.214856 
L 278.096171 235.10476 
L 292.865058 228.564297 
L 295.818836 226.9218 
L 298.772613 225.777638 
L 301.726391 224.071167 
L 304.680168 222.627003 
L 307.633946 220.976517 
L 331.264166 209.794015 
L 334.217944 208.778608 
L 337.171721 207.102585 
L 340.125499 206.417401 
L 343.079276 205.109806 
L 346.033054 204.441994 
L 348.986831 203.579162 
L 357.848164 201.915828 
L 360.801941 201.049853 
L 369.663274 200.215573 
L 375.570829 199.695453 
L 378.524606 199.838332 
L 381.478384 199.264173 
L 384.432161 198.97133 
L 390.339716 198.94212 
L 402.154827 198.533167 
L 405.108604 198.579178 
L 408.062382 198.278272 
L 411.016159 198.576739 
L 413.969937 198.592716 
L 422.831269 198.075712 
L 425.785047 198.26874 
L 437.600157 198.398621 
L 440.553934 198.367266 
L 443.507712 198.584805 
L 446.461489 198.475916 
L 449.415267 198.511804 
L 452.369044 198.353968 
L 458.276599 198.74691 
L 461.230377 198.613083 
L 464.184155 198.826919 
L 467.137932 198.532327 
L 470.09171 198.550313 
L 473.045487 198.767486 
L 475.999265 199.262198 
L 478.953042 199.079611 
L 481.90682 199.035133 
L 487.814375 199.362659 
L 493.72193 198.88377 
L 499.629485 199.23316 
L 511.444595 199.267417 
L 514.398372 199.453442 
L 517.35215 199.401299 
L 523.259705 199.720089 
L 526.213482 199.561361 
L 529.16726 199.662577 
L 532.121038 199.534571 
L 538.028593 199.609975 
L 540.98237 199.455436 
L 546.889925 199.747682 
L 549.843703 199.582859 
L 552.79748 199.848218 
L 555.751258 199.575054 
L 564.61259 199.702988 
L 570.520145 199.660954 
L 576.4277 199.881734 
L 588.24281 199.839187 
L 591.196588 200.362327 
L 594.150366 200.061643 
L 600.057921 200.062006 
L 603.011698 199.933307 
L 608.919253 200.330491 
L 611.873031 199.859706 
L 614.826808 200.214562 
L 617.780586 200.434616 
L 620.734363 200.441095 
L 626.641918 200.144391 
L 629.595696 200.397009 
L 632.549473 200.495309 
L 638.457028 200.38816 
L 641.410806 200.557157 
L 647.318361 200.396127 
L 650.272138 200.538862 
L 656.179693 200.571385 
L 659.133471 200.755763 
L 665.041026 200.684496 
L 667.994804 200.849478 
L 673.902359 200.529453 
L 676.856136 201.026351 
L 679.809914 200.779913 
L 679.809914 200.779913 
" clip-path="url(#pa703ab3741)" style="fill: none; stroke: #ff7f0e; stroke-opacity: 0.8; stroke-width: 2.5; stroke-linecap: round"/>
   </g>
   <g id="LineCollection_2">
    <path d="M 92.008187 385.402234 
L 92.008187 368.876645 
" clip-path="url(#pa703ab3741)" style="fill: none; stroke: #ff7f0e; stroke-opacity: 0.8; stroke-width: 2"/>
    <path d="M 151.083737 334.598216 
L 151.083737 318.597161 
" clip-path="url(#pa703ab3741)" style="fill: none; stroke: #ff7f0e; stroke-opacity: 0.8; stroke-width: 2"/>
    <path d="M 210.159288 268.133411 
L 210.159288 260.551464 
" clip-path="url(#pa703ab3741)" style="fill: none; stroke: #ff7f0e; stroke-opacity: 0.8; stroke-width: 2"/>
    <path d="M 269.234838 244.50219 
L 269.234838 235.480937 
" clip-path="url(#pa703ab3741)" style="fill: none; stroke: #ff7f0e; stroke-opacity: 0.8; stroke-width: 2"/>
    <path d="M 328.310388 213.828615 
L 328.310388 208.386367 
" clip-path="url(#pa703ab3741)" style="fill: none; stroke: #ff7f0e; stroke-opacity: 0.8; stroke-width: 2"/>
    <path d="M 387.385939 199.573566 
L 387.385939 198.43641 
" clip-path="url(#pa703ab3741)" style="fill: none; stroke: #ff7f0e; stroke-opacity: 0.8; stroke-width: 2"/>
    <path d="M 446.461489 199.126529 
L 446.461489 197.825302 
" clip-path="url(#pa703ab3741)" style="fill: none; stroke: #ff7f0e; stroke-opacity: 0.8; stroke-width: 2"/>
    <path d="M 505.53704 200.312833 
L 505.53704 198.232138 
" clip-path="url(#pa703ab3741)" style="fill: none; stroke: #ff7f0e; stroke-opacity: 0.8; stroke-width: 2"/>
    <path d="M 564.61259 200.533552 
L 564.61259 198.872424 
" clip-path="url(#pa703ab3741)" style="fill: none; stroke: #ff7f0e; stroke-opacity: 0.8; stroke-width: 2"/>
    <path d="M 623.688141 201.358939 
L 623.688141 199.116682 
" clip-path="url(#pa703ab3741)" style="fill: none; stroke: #ff7f0e; stroke-opacity: 0.8; stroke-width: 2"/>
   </g>
   <g id="line2d_31">
    <defs>
     <path id="m4a68f4298b" d="M 3 0 
L -3 -0 
" style="stroke: #ff7f0e; stroke-opacity: 0.8"/>
    </defs>
    <g clip-path="url(#pa703ab3741)">
     <use xlink:href="#m4a68f4298b" x="92.008187" y="385.402234" style="fill: #ff7f0e; fill-opacity: 0.8; stroke: #ff7f0e; stroke-opacity: 0.8"/>
     <use xlink:href="#m4a68f4298b" x="151.083737" y="334.598216" style="fill: #ff7f0e; fill-opacity: 0.8; stroke: #ff7f0e; stroke-opacity: 0.8"/>
     <use xlink:href="#m4a68f4298b" x="210.159288" y="268.133411" style="fill: #ff7f0e; fill-opacity: 0.8; stroke: #ff7f0e; stroke-opacity: 0.8"/>
     <use xlink:href="#m4a68f4298b" x="269.234838" y="244.50219" style="fill: #ff7f0e; fill-opacity: 0.8; stroke: #ff7f0e; stroke-opacity: 0.8"/>
     <use xlink:href="#m4a68f4298b" x="328.310388" y="213.828615" style="fill: #ff7f0e; fill-opacity: 0.8; stroke: #ff7f0e; stroke-opacity: 0.8"/>
     <use xlink:href="#m4a68f4298b" x="387.385939" y="199.573566" style="fill: #ff7f0e; fill-opacity: 0.8; stroke: #ff7f0e; stroke-opacity: 0.8"/>
     <use xlink:href="#m4a68f4298b" x="446.461489" y="199.126529" style="fill: #ff7f0e; fill-opacity: 0.8; stroke: #ff7f0e; stroke-opacity: 0.8"/>
     <use xlink:href="#m4a68f4298b" x="505.53704" y="200.312833" style="fill: #ff7f0e; fill-opacity: 0.8; stroke: #ff7f0e; stroke-opacity: 0.8"/>
     <use xlink:href="#m4a68f4298b" x="564.61259" y="200.533552" style="fill: #ff7f0e; fill-opacity: 0.8; stroke: #ff7f0e; stroke-opacity: 0.8"/>
     <use xlink:href="#m4a68f4298b" x="623.688141" y="201.358939" style="fill: #ff7f0e; fill-opacity: 0.8; stroke: #ff7f0e; stroke-opacity: 0.8"/>
    </g>
   </g>
   <g id="line2d_32">
    <g clip-path="url(#pa703ab3741)">
     <use xlink:href="#m4a68f4298b" x="92.008187" y="368.876645" style="fill: #ff7f0e; fill-opacity: 0.8; stroke: #ff7f0e; stroke-opacity: 0.8"/>
     <use xlink:href="#m4a68f4298b" x="151.083737" y="318.597161" style="fill: #ff7f0e; fill-opacity: 0.8; stroke: #ff7f0e; stroke-opacity: 0.8"/>
     <use xlink:href="#m4a68f4298b" x="210.159288" y="260.551464" style="fill: #ff7f0e; fill-opacity: 0.8; stroke: #ff7f0e; stroke-opacity: 0.8"/>
     <use xlink:href="#m4a68f4298b" x="269.234838" y="235.480937" style="fill: #ff7f0e; fill-opacity: 0.8; stroke: #ff7f0e; stroke-opacity: 0.8"/>
     <use xlink:href="#m4a68f4298b" x="328.310388" y="208.386367" style="fill: #ff7f0e; fill-opacity: 0.8; stroke: #ff7f0e; stroke-opacity: 0.8"/>
     <use xlink:href="#m4a68f4298b" x="387.385939" y="198.43641" style="fill: #ff7f0e; fill-opacity: 0.8; stroke: #ff7f0e; stroke-opacity: 0.8"/>
     <use xlink:href="#m4a68f4298b" x="446.461489" y="197.825302" style="fill: #ff7f0e; fill-opacity: 0.8; stroke: #ff7f0e; stroke-opacity: 0.8"/>
     <use xlink:href="#m4a68f4298b" x="505.53704" y="198.232138" style="fill: #ff7f0e; fill-opacity: 0.8; stroke: #ff7f0e; stroke-opacity: 0.8"/>
     <use xlink:href="#m4a68f4298b" x="564.61259" y="198.872424" style="fill: #ff7f0e; fill-opacity: 0.8; stroke: #ff7f0e; stroke-opacity: 0.8"/>
     <use xlink:href="#m4a68f4298b" x="623.688141" y="199.116682" style="fill: #ff7f0e; fill-opacity: 0.8; stroke: #ff7f0e; stroke-opacity: 0.8"/>
    </g>
   </g>
   <g id="line2d_33">
    <path d="M 92.008187 374.991463 
L 94.961964 311.481596 
L 97.915742 305.718411 
L 100.869519 302.885072 
L 103.823297 300.666318 
L 106.777074 297.949228 
L 109.730852 294.332113 
L 112.684629 289.906223 
L 118.592184 279.646401 
L 121.545962 274.572148 
L 124.499739 270.237616 
L 127.453517 266.716889 
L 130.407294 264.075565 
L 133.361072 262.217438 
L 136.31485 260.905573 
L 139.268627 259.978783 
L 142.222405 259.342899 
L 145.176182 258.883307 
L 151.083737 258.347134 
L 156.991292 258.085181 
L 165.852625 257.922252 
L 186.529067 257.882039 
L 207.20551 258.033558 
L 236.743285 258.49478 
L 266.281061 259.184001 
L 298.772613 260.212422 
L 334.217944 261.345075 
L 348.986831 261.566503 
L 381.478384 261.562568 
L 475.999265 261.098316 
L 487.814375 261.042296 
L 679.809914 260.344142 
L 679.809914 260.344142 
" clip-path="url(#pa703ab3741)" style="fill: none; stroke: #2ca02c; stroke-opacity: 0.8; stroke-width: 2.5; stroke-linecap: round"/>
   </g>
   <g id="LineCollection_3">
    <path d="M 92.008187 382.48014 
L 92.008187 366.246177 
" clip-path="url(#pa703ab3741)" style="fill: none; stroke: #2ca02c; stroke-opacity: 0.8; stroke-width: 2"/>
    <path d="M 151.083737 258.450062 
L 151.083737 258.244003 
" clip-path="url(#pa703ab3741)" style="fill: none; stroke: #2ca02c; stroke-opacity: 0.8; stroke-width: 2"/>
    <path d="M 210.159288 258.119981 
L 210.159288 258.018053 
" clip-path="url(#pa703ab3741)" style="fill: none; stroke: #2ca02c; stroke-opacity: 0.8; stroke-width: 2"/>
    <path d="M 269.234838 259.302567 
L 269.234838 259.233461 
" clip-path="url(#pa703ab3741)" style="fill: none; stroke: #2ca02c; stroke-opacity: 0.8; stroke-width: 2"/>
    <path d="M 328.310388 261.36891 
L 328.310388 260.976984 
" clip-path="url(#pa703ab3741)" style="fill: none; stroke: #2ca02c; stroke-opacity: 0.8; stroke-width: 2"/>
    <path d="M 387.385939 261.913611 
L 387.385939 261.214737 
" clip-path="url(#pa703ab3741)" style="fill: none; stroke: #2ca02c; stroke-opacity: 0.8; stroke-width: 2"/>
    <path d="M 446.461489 261.625436 
L 446.461489 260.875712 
" clip-path="url(#pa703ab3741)" style="fill: none; stroke: #2ca02c; stroke-opacity: 0.8; stroke-width: 2"/>
    <path d="M 505.53704 261.223745 
L 505.53704 260.640748 
" clip-path="url(#pa703ab3741)" style="fill: none; stroke: #2ca02c; stroke-opacity: 0.8; stroke-width: 2"/>
    <path d="M 564.61259 260.854005 
L 564.61259 260.423098 
" clip-path="url(#pa703ab3741)" style="fill: none; stroke: #2ca02c; stroke-opacity: 0.8; stroke-width: 2"/>
    <path d="M 623.688141 260.630019 
L 623.688141 260.277097 
" clip-path="url(#pa703ab3741)" style="fill: none; stroke: #2ca02c; stroke-opacity: 0.8; stroke-width: 2"/>
   </g>
   <g id="line2d_34">
    <defs>
     <path id="m633d2104ed" d="M 3 0 
L -3 -0 
" style="stroke: #2ca02c; stroke-opacity: 0.8"/>
    </defs>
    <g clip-path="url(#pa703ab3741)">
     <use xlink:href="#m633d2104ed" x="92.008187" y="382.48014" style="fill: #2ca02c; fill-opacity: 0.8; stroke: #2ca02c; stroke-opacity: 0.8"/>
     <use xlink:href="#m633d2104ed" x="151.083737" y="258.450062" style="fill: #2ca02c; fill-opacity: 0.8; stroke: #2ca02c; stroke-opacity: 0.8"/>
     <use xlink:href="#m633d2104ed" x="210.159288" y="258.119981" style="fill: #2ca02c; fill-opacity: 0.8; stroke: #2ca02c; stroke-opacity: 0.8"/>
     <use xlink:href="#m633d2104ed" x="269.234838" y="259.302567" style="fill: #2ca02c; fill-opacity: 0.8; stroke: #2ca02c; stroke-opacity: 0.8"/>
     <use xlink:href="#m633d2104ed" x="328.310388" y="261.36891" style="fill: #2ca02c; fill-opacity: 0.8; stroke: #2ca02c; stroke-opacity: 0.8"/>
     <use xlink:href="#m633d2104ed" x="387.385939" y="261.913611" style="fill: #2ca02c; fill-opacity: 0.8; stroke: #2ca02c; stroke-opacity: 0.8"/>
     <use xlink:href="#m633d2104ed" x="446.461489" y="261.625436" style="fill: #2ca02c; fill-opacity: 0.8; stroke: #2ca02c; stroke-opacity: 0.8"/>
     <use xlink:href="#m633d2104ed" x="505.53704" y="261.223745" style="fill: #2ca02c; fill-opacity: 0.8; stroke: #2ca02c; stroke-opacity: 0.8"/>
     <use xlink:href="#m633d2104ed" x="564.61259" y="260.854005" style="fill: #2ca02c; fill-opacity: 0.8; stroke: #2ca02c; stroke-opacity: 0.8"/>
     <use xlink:href="#m633d2104ed" x="623.688141" y="260.630019" style="fill: #2ca02c; fill-opacity: 0.8; stroke: #2ca02c; stroke-opacity: 0.8"/>
    </g>
   </g>
   <g id="line2d_35">
    <g clip-path="url(#pa703ab3741)">
     <use xlink:href="#m633d2104ed" x="92.008187" y="366.246177" style="fill: #2ca02c; fill-opacity: 0.8; stroke: #2ca02c; stroke-opacity: 0.8"/>
     <use xlink:href="#m633d2104ed" x="151.083737" y="258.244003" style="fill: #2ca02c; fill-opacity: 0.8; stroke: #2ca02c; stroke-opacity: 0.8"/>
     <use xlink:href="#m633d2104ed" x="210.159288" y="258.018053" style="fill: #2ca02c; fill-opacity: 0.8; stroke: #2ca02c; stroke-opacity: 0.8"/>
     <use xlink:href="#m633d2104ed" x="269.234838" y="259.233461" style="fill: #2ca02c; fill-opacity: 0.8; stroke: #2ca02c; stroke-opacity: 0.8"/>
     <use xlink:href="#m633d2104ed" x="328.310388" y="260.976984" style="fill: #2ca02c; fill-opacity: 0.8; stroke: #2ca02c; stroke-opacity: 0.8"/>
     <use xlink:href="#m633d2104ed" x="387.385939" y="261.214737" style="fill: #2ca02c; fill-opacity: 0.8; stroke: #2ca02c; stroke-opacity: 0.8"/>
     <use xlink:href="#m633d2104ed" x="446.461489" y="260.875712" style="fill: #2ca02c; fill-opacity: 0.8; stroke: #2ca02c; stroke-opacity: 0.8"/>
     <use xlink:href="#m633d2104ed" x="505.53704" y="260.640748" style="fill: #2ca02c; fill-opacity: 0.8; stroke: #2ca02c; stroke-opacity: 0.8"/>
     <use xlink:href="#m633d2104ed" x="564.61259" y="260.423098" style="fill: #2ca02c; fill-opacity: 0.8; stroke: #2ca02c; stroke-opacity: 0.8"/>
     <use xlink:href="#m633d2104ed" x="623.688141" y="260.277097" style="fill: #2ca02c; fill-opacity: 0.8; stroke: #2ca02c; stroke-opacity: 0.8"/>
    </g>
   </g>
   <g id="line2d_36">
    <path d="M 92.008187 383.579212 
L 94.961964 318.215076 
L 97.915742 314.999464 
L 100.869519 315.647372 
L 106.777074 319.6808 
L 109.730852 321.125807 
L 112.684629 321.196841 
L 115.638407 319.886154 
L 118.592184 317.368951 
L 121.545962 313.365651 
L 124.499739 308.358696 
L 127.453517 302.527058 
L 133.361072 289.994913 
L 136.31485 284.250495 
L 142.222405 273.536333 
L 145.176182 268.95535 
L 148.12996 265.194816 
L 151.083737 261.872257 
L 154.037515 258.769041 
L 156.991292 255.991895 
L 162.898847 251.299137 
L 165.852625 249.368815 
L 168.806402 247.644317 
L 171.76018 246.150862 
L 174.713957 244.831021 
L 177.667735 242.125505 
L 183.57529 237.132986 
L 189.482845 233.297942 
L 192.436622 231.752897 
L 195.3904 230.45602 
L 198.344177 229.033798 
L 204.251733 227.125172 
L 207.20551 226.194611 
L 216.066843 224.205866 
L 224.928175 222.600487 
L 227.881953 222.219722 
L 230.83573 221.700427 
L 245.604618 220.017234 
L 257.419728 219.025198 
L 266.281061 218.34599 
L 284.003726 217.536763 
L 292.865058 217.325394 
L 301.726391 217.314497 
L 313.541501 217.529547 
L 337.171721 219.100255 
L 346.033054 219.797547 
L 354.894386 220.271432 
L 363.755719 220.435496 
L 384.432161 220.059199 
L 387.385939 220.109232 
L 402.154827 219.709078 
L 405.108604 219.840029 
L 408.062382 219.64513 
L 411.016159 219.688682 
L 416.923714 219.514859 
L 419.877492 219.509527 
L 422.831269 219.355305 
L 428.738824 219.438929 
L 434.646379 219.231086 
L 464.184155 218.958214 
L 467.137932 218.73289 
L 473.045487 218.620678 
L 484.860597 218.663179 
L 487.814375 218.51126 
L 493.72193 218.38025 
L 496.675707 218.178433 
L 499.629485 218.176885 
L 502.583262 218.286613 
L 511.444595 217.852074 
L 514.398372 217.969257 
L 517.35215 217.896901 
L 520.305927 218.004872 
L 529.16726 217.47566 
L 532.121038 217.473686 
L 535.074815 217.324086 
L 538.028593 217.338711 
L 540.98237 217.657717 
L 543.936148 217.36724 
L 546.889925 217.330153 
L 549.843703 216.964342 
L 558.705035 217.027207 
L 561.658813 216.838188 
L 564.61259 216.803664 
L 567.566368 216.942057 
L 570.520145 216.967859 
L 573.473923 216.676709 
L 576.4277 216.737258 
L 579.381478 216.534195 
L 588.24281 216.610725 
L 591.196588 216.488966 
L 594.150366 216.743874 
L 597.104143 216.380151 
L 600.057921 216.425553 
L 603.011698 216.24886 
L 605.965476 216.400111 
L 608.919253 216.312548 
L 611.873031 216.517158 
L 617.780586 216.324731 
L 620.734363 216.509089 
L 623.688141 216.549461 
L 629.595696 216.277536 
L 632.549473 216.309014 
L 635.503251 216.489275 
L 638.457028 216.374811 
L 641.410806 216.387866 
L 644.364583 216.128177 
L 647.318361 216.075637 
L 650.272138 216.415189 
L 653.225916 216.496889 
L 656.179693 216.285753 
L 659.133471 216.23522 
L 665.041026 216.566026 
L 667.994804 216.460477 
L 670.948581 216.605321 
L 676.856136 216.433503 
L 679.809914 216.445348 
L 679.809914 216.445348 
" clip-path="url(#pa703ab3741)" style="fill: none; stroke: #d62728; stroke-opacity: 0.8; stroke-width: 2.5; stroke-linecap: round"/>
   </g>
   <g id="LineCollection_4">
    <path d="M 92.008187 394.86471 
L 92.008187 369.162647 
" clip-path="url(#pa703ab3741)" style="fill: none; stroke: #d62728; stroke-opacity: 0.8; stroke-width: 2"/>
    <path d="M 151.083737 269.704033 
L 151.083737 252.655109 
" clip-path="url(#pa703ab3741)" style="fill: none; stroke: #d62728; stroke-opacity: 0.8; stroke-width: 2"/>
    <path d="M 210.159288 227.51344 
L 210.159288 223.532156 
" clip-path="url(#pa703ab3741)" style="fill: none; stroke: #d62728; stroke-opacity: 0.8; stroke-width: 2"/>
    <path d="M 269.234838 218.918658 
L 269.234838 217.46909 
" clip-path="url(#pa703ab3741)" style="fill: none; stroke: #d62728; stroke-opacity: 0.8; stroke-width: 2"/>
    <path d="M 328.310388 220.611012 
L 328.310388 216.236931 
" clip-path="url(#pa703ab3741)" style="fill: none; stroke: #d62728; stroke-opacity: 0.8; stroke-width: 2"/>
    <path d="M 387.385939 223.172929 
L 387.385939 217.045535 
" clip-path="url(#pa703ab3741)" style="fill: none; stroke: #d62728; stroke-opacity: 0.8; stroke-width: 2"/>
    <path d="M 446.461489 222.663357 
L 446.461489 215.455387 
" clip-path="url(#pa703ab3741)" style="fill: none; stroke: #d62728; stroke-opacity: 0.8; stroke-width: 2"/>
    <path d="M 505.53704 222.388909 
L 505.53704 213.908119 
" clip-path="url(#pa703ab3741)" style="fill: none; stroke: #d62728; stroke-opacity: 0.8; stroke-width: 2"/>
    <path d="M 564.61259 220.87987 
L 564.61259 212.727458 
" clip-path="url(#pa703ab3741)" style="fill: none; stroke: #d62728; stroke-opacity: 0.8; stroke-width: 2"/>
    <path d="M 623.688141 220.896028 
L 623.688141 212.202894 
" clip-path="url(#pa703ab3741)" style="fill: none; stroke: #d62728; stroke-opacity: 0.8; stroke-width: 2"/>
   </g>
   <g id="line2d_37">
    <defs>
     <path id="m45463371b7" d="M 3 0 
L -3 -0 
" style="stroke: #d62728; stroke-opacity: 0.8"/>
    </defs>
    <g clip-path="url(#pa703ab3741)">
     <use xlink:href="#m45463371b7" x="92.008187" y="394.86471" style="fill: #d62728; fill-opacity: 0.8; stroke: #d62728; stroke-opacity: 0.8"/>
     <use xlink:href="#m45463371b7" x="151.083737" y="269.704033" style="fill: #d62728; fill-opacity: 0.8; stroke: #d62728; stroke-opacity: 0.8"/>
     <use xlink:href="#m45463371b7" x="210.159288" y="227.51344" style="fill: #d62728; fill-opacity: 0.8; stroke: #d62728; stroke-opacity: 0.8"/>
     <use xlink:href="#m45463371b7" x="269.234838" y="218.918658" style="fill: #d62728; fill-opacity: 0.8; stroke: #d62728; stroke-opacity: 0.8"/>
     <use xlink:href="#m45463371b7" x="328.310388" y="220.611012" style="fill: #d62728; fill-opacity: 0.8; stroke: #d62728; stroke-opacity: 0.8"/>
     <use xlink:href="#m45463371b7" x="387.385939" y="223.172929" style="fill: #d62728; fill-opacity: 0.8; stroke: #d62728; stroke-opacity: 0.8"/>
     <use xlink:href="#m45463371b7" x="446.461489" y="222.663357" style="fill: #d62728; fill-opacity: 0.8; stroke: #d62728; stroke-opacity: 0.8"/>
     <use xlink:href="#m45463371b7" x="505.53704" y="222.388909" style="fill: #d62728; fill-opacity: 0.8; stroke: #d62728; stroke-opacity: 0.8"/>
     <use xlink:href="#m45463371b7" x="564.61259" y="220.87987" style="fill: #d62728; fill-opacity: 0.8; stroke: #d62728; stroke-opacity: 0.8"/>
     <use xlink:href="#m45463371b7" x="623.688141" y="220.896028" style="fill: #d62728; fill-opacity: 0.8; stroke: #d62728; stroke-opacity: 0.8"/>
    </g>
   </g>
   <g id="line2d_38">
    <g clip-path="url(#pa703ab3741)">
     <use xlink:href="#m45463371b7" x="92.008187" y="369.162647" style="fill: #d62728; fill-opacity: 0.8; stroke: #d62728; stroke-opacity: 0.8"/>
     <use xlink:href="#m45463371b7" x="151.083737" y="252.655109" style="fill: #d62728; fill-opacity: 0.8; stroke: #d62728; stroke-opacity: 0.8"/>
     <use xlink:href="#m45463371b7" x="210.159288" y="223.532156" style="fill: #d62728; fill-opacity: 0.8; stroke: #d62728; stroke-opacity: 0.8"/>
     <use xlink:href="#m45463371b7" x="269.234838" y="217.46909" style="fill: #d62728; fill-opacity: 0.8; stroke: #d62728; stroke-opacity: 0.8"/>
     <use xlink:href="#m45463371b7" x="328.310388" y="216.236931" style="fill: #d62728; fill-opacity: 0.8; stroke: #d62728; stroke-opacity: 0.8"/>
     <use xlink:href="#m45463371b7" x="387.385939" y="217.045535" style="fill: #d62728; fill-opacity: 0.8; stroke: #d62728; stroke-opacity: 0.8"/>
     <use xlink:href="#m45463371b7" x="446.461489" y="215.455387" style="fill: #d62728; fill-opacity: 0.8; stroke: #d62728; stroke-opacity: 0.8"/>
     <use xlink:href="#m45463371b7" x="505.53704" y="213.908119" style="fill: #d62728; fill-opacity: 0.8; stroke: #d62728; stroke-opacity: 0.8"/>
     <use xlink:href="#m45463371b7" x="564.61259" y="212.727458" style="fill: #d62728; fill-opacity: 0.8; stroke: #d62728; stroke-opacity: 0.8"/>
     <use xlink:href="#m45463371b7" x="623.688141" y="212.202894" style="fill: #d62728; fill-opacity: 0.8; stroke: #d62728; stroke-opacity: 0.8"/>
    </g>
   </g>
   <g id="line2d_39">
    <defs>
     <path id="m55430c4f94" d="M -3 3 
L 3 3 
L 3 -3 
L -3 -3 
z
" style="stroke: #1f77b4; stroke-opacity: 0.8; stroke-linejoin: miter"/>
    </defs>
    <g clip-path="url(#pa703ab3741)">
     <use xlink:href="#m55430c4f94" x="92.008187" y="377.820188" style="fill: #1f77b4; fill-opacity: 0.8; stroke: #1f77b4; stroke-opacity: 0.8; stroke-linejoin: miter"/>
     <use xlink:href="#m55430c4f94" x="151.083737" y="447.680583" style="fill: #1f77b4; fill-opacity: 0.8; stroke: #1f77b4; stroke-opacity: 0.8; stroke-linejoin: miter"/>
     <use xlink:href="#m55430c4f94" x="210.159288" y="515.946564" style="fill: #1f77b4; fill-opacity: 0.8; stroke: #1f77b4; stroke-opacity: 0.8; stroke-linejoin: miter"/>
     <use xlink:href="#m55430c4f94" x="269.234838" y="512.02285" style="fill: #1f77b4; fill-opacity: 0.8; stroke: #1f77b4; stroke-opacity: 0.8; stroke-linejoin: miter"/>
     <use xlink:href="#m55430c4f94" x="328.310388" y="500.107047" style="fill: #1f77b4; fill-opacity: 0.8; stroke: #1f77b4; stroke-opacity: 0.8; stroke-linejoin: miter"/>
     <use xlink:href="#m55430c4f94" x="387.385939" y="486.812338" style="fill: #1f77b4; fill-opacity: 0.8; stroke: #1f77b4; stroke-opacity: 0.8; stroke-linejoin: miter"/>
     <use xlink:href="#m55430c4f94" x="446.461489" y="473.244339" style="fill: #1f77b4; fill-opacity: 0.8; stroke: #1f77b4; stroke-opacity: 0.8; stroke-linejoin: miter"/>
     <use xlink:href="#m55430c4f94" x="505.53704" y="459.488833" style="fill: #1f77b4; fill-opacity: 0.8; stroke: #1f77b4; stroke-opacity: 0.8; stroke-linejoin: miter"/>
     <use xlink:href="#m55430c4f94" x="564.61259" y="445.985914" style="fill: #1f77b4; fill-opacity: 0.8; stroke: #1f77b4; stroke-opacity: 0.8; stroke-linejoin: miter"/>
     <use xlink:href="#m55430c4f94" x="623.688141" y="433.203341" style="fill: #1f77b4; fill-opacity: 0.8; stroke: #1f77b4; stroke-opacity: 0.8; stroke-linejoin: miter"/>
    </g>
   </g>
   <g id="line2d_40">
    <defs>
     <path id="m43fd91c93b" d="M -3 3 
L 3 3 
L 3 -3 
L -3 -3 
z
" style="stroke: #ff7f0e; stroke-opacity: 0.8; stroke-linejoin: miter"/>
    </defs>
    <g clip-path="url(#pa703ab3741)">
     <use xlink:href="#m43fd91c93b" x="92.008187" y="377.790426" style="fill: #ff7f0e; fill-opacity: 0.8; stroke: #ff7f0e; stroke-opacity: 0.8; stroke-linejoin: miter"/>
     <use xlink:href="#m43fd91c93b" x="151.083737" y="327.208163" style="fill: #ff7f0e; fill-opacity: 0.8; stroke: #ff7f0e; stroke-opacity: 0.8; stroke-linejoin: miter"/>
     <use xlink:href="#m43fd91c93b" x="210.159288" y="264.479918" style="fill: #ff7f0e; fill-opacity: 0.8; stroke: #ff7f0e; stroke-opacity: 0.8; stroke-linejoin: miter"/>
     <use xlink:href="#m43fd91c93b" x="269.234838" y="240.049375" style="fill: #ff7f0e; fill-opacity: 0.8; stroke: #ff7f0e; stroke-opacity: 0.8; stroke-linejoin: miter"/>
     <use xlink:href="#m43fd91c93b" x="328.310388" y="211.107491" style="fill: #ff7f0e; fill-opacity: 0.8; stroke: #ff7f0e; stroke-opacity: 0.8; stroke-linejoin: miter"/>
     <use xlink:href="#m43fd91c93b" x="387.385939" y="199.004988" style="fill: #ff7f0e; fill-opacity: 0.8; stroke: #ff7f0e; stroke-opacity: 0.8; stroke-linejoin: miter"/>
     <use xlink:href="#m43fd91c93b" x="446.461489" y="198.475916" style="fill: #ff7f0e; fill-opacity: 0.8; stroke: #ff7f0e; stroke-opacity: 0.8; stroke-linejoin: miter"/>
     <use xlink:href="#m43fd91c93b" x="505.53704" y="199.272485" style="fill: #ff7f0e; fill-opacity: 0.8; stroke: #ff7f0e; stroke-opacity: 0.8; stroke-linejoin: miter"/>
     <use xlink:href="#m43fd91c93b" x="564.61259" y="199.702988" style="fill: #ff7f0e; fill-opacity: 0.8; stroke: #ff7f0e; stroke-opacity: 0.8; stroke-linejoin: miter"/>
     <use xlink:href="#m43fd91c93b" x="623.688141" y="200.23781" style="fill: #ff7f0e; fill-opacity: 0.8; stroke: #ff7f0e; stroke-opacity: 0.8; stroke-linejoin: miter"/>
    </g>
   </g>
   <g id="line2d_41">
    <defs>
     <path id="m01783d3746" d="M -3 3 
L 3 3 
L 3 -3 
L -3 -3 
z
" style="stroke: #2ca02c; stroke-opacity: 0.8; stroke-linejoin: miter"/>
    </defs>
    <g clip-path="url(#pa703ab3741)">
     <use xlink:href="#m01783d3746" x="92.008187" y="374.991463" style="fill: #2ca02c; fill-opacity: 0.8; stroke: #2ca02c; stroke-opacity: 0.8; stroke-linejoin: miter"/>
     <use xlink:href="#m01783d3746" x="151.083737" y="258.347134" style="fill: #2ca02c; fill-opacity: 0.8; stroke: #2ca02c; stroke-opacity: 0.8; stroke-linejoin: miter"/>
     <use xlink:href="#m01783d3746" x="210.159288" y="258.069042" style="fill: #2ca02c; fill-opacity: 0.8; stroke: #2ca02c; stroke-opacity: 0.8; stroke-linejoin: miter"/>
     <use xlink:href="#m01783d3746" x="269.234838" y="259.268025" style="fill: #2ca02c; fill-opacity: 0.8; stroke: #2ca02c; stroke-opacity: 0.8; stroke-linejoin: miter"/>
     <use xlink:href="#m01783d3746" x="328.310388" y="261.173315" style="fill: #2ca02c; fill-opacity: 0.8; stroke: #2ca02c; stroke-opacity: 0.8; stroke-linejoin: miter"/>
     <use xlink:href="#m01783d3746" x="387.385939" y="261.565343" style="fill: #2ca02c; fill-opacity: 0.8; stroke: #2ca02c; stroke-opacity: 0.8; stroke-linejoin: miter"/>
     <use xlink:href="#m01783d3746" x="446.461489" y="261.25192" style="fill: #2ca02c; fill-opacity: 0.8; stroke: #2ca02c; stroke-opacity: 0.8; stroke-linejoin: miter"/>
     <use xlink:href="#m01783d3746" x="505.53704" y="260.93306" style="fill: #2ca02c; fill-opacity: 0.8; stroke: #2ca02c; stroke-opacity: 0.8; stroke-linejoin: miter"/>
     <use xlink:href="#m01783d3746" x="564.61259" y="260.638996" style="fill: #2ca02c; fill-opacity: 0.8; stroke: #2ca02c; stroke-opacity: 0.8; stroke-linejoin: miter"/>
     <use xlink:href="#m01783d3746" x="623.688141" y="260.453856" style="fill: #2ca02c; fill-opacity: 0.8; stroke: #2ca02c; stroke-opacity: 0.8; stroke-linejoin: miter"/>
    </g>
   </g>
   <g id="line2d_42">
    <defs>
     <path id="mbb72d6dd9e" d="M -3 3 
L 3 3 
L 3 -3 
L -3 -3 
z
" style="stroke: #d62728; stroke-opacity: 0.8; stroke-linejoin: miter"/>
    </defs>
    <g clip-path="url(#pa703ab3741)">
     <use xlink:href="#mbb72d6dd9e" x="92.008187" y="383.579212" style="fill: #d62728; fill-opacity: 0.8; stroke: #d62728; stroke-opacity: 0.8; stroke-linejoin: miter"/>
     <use xlink:href="#mbb72d6dd9e" x="151.083737" y="261.872257" style="fill: #d62728; fill-opacity: 0.8; stroke: #d62728; stroke-opacity: 0.8; stroke-linejoin: miter"/>
     <use xlink:href="#mbb72d6dd9e" x="210.159288" y="225.522798" style="fill: #d62728; fill-opacity: 0.8; stroke: #d62728; stroke-opacity: 0.8; stroke-linejoin: miter"/>
     <use xlink:href="#mbb72d6dd9e" x="269.234838" y="218.193874" style="fill: #d62728; fill-opacity: 0.8; stroke: #d62728; stroke-opacity: 0.8; stroke-linejoin: miter"/>
     <use xlink:href="#mbb72d6dd9e" x="328.310388" y="218.423971" style="fill: #d62728; fill-opacity: 0.8; stroke: #d62728; stroke-opacity: 0.8; stroke-linejoin: miter"/>
     <use xlink:href="#mbb72d6dd9e" x="387.385939" y="220.109232" style="fill: #d62728; fill-opacity: 0.8; stroke: #d62728; stroke-opacity: 0.8; stroke-linejoin: miter"/>
     <use xlink:href="#mbb72d6dd9e" x="446.461489" y="219.059372" style="fill: #d62728; fill-opacity: 0.8; stroke: #d62728; stroke-opacity: 0.8; stroke-linejoin: miter"/>
     <use xlink:href="#mbb72d6dd9e" x="505.53704" y="218.148514" style="fill: #d62728; fill-opacity: 0.8; stroke: #d62728; stroke-opacity: 0.8; stroke-linejoin: miter"/>
     <use xlink:href="#mbb72d6dd9e" x="564.61259" y="216.803664" style="fill: #d62728; fill-opacity: 0.8; stroke: #d62728; stroke-opacity: 0.8; stroke-linejoin: miter"/>
     <use xlink:href="#mbb72d6dd9e" x="623.688141" y="216.549461" style="fill: #d62728; fill-opacity: 0.8; stroke: #d62728; stroke-opacity: 0.8; stroke-linejoin: miter"/>
    </g>
   </g>
   <g id="patch_3">
    <path d="M 62.6181 526.84 
L 62.6181 44.02125 
" style="fill: none; stroke: #1a1a1a; stroke-width: 0.8; stroke-linejoin: miter; stroke-linecap: square"/>
   </g>
   <g id="patch_4">
    <path d="M 709.2 526.84 
L 709.2 44.02125 
" style="fill: none; stroke: #1a1a1a; stroke-width: 0.8; stroke-linejoin: miter; stroke-linecap: square"/>
   </g>
   <g id="patch_5">
    <path d="M 62.6181 526.84 
L 709.2 526.84 
" style="fill: none; stroke: #1a1a1a; stroke-width: 0.8; stroke-linejoin: miter; stroke-linecap: square"/>
   </g>
   <g id="patch_6">
    <path d="M 62.6181 44.02125 
L 709.2 44.02125 
" style="fill: none; stroke: #1a1a1a; stroke-width: 0.8; stroke-linejoin: miter; stroke-linecap: square"/>
   </g>
   <g id="legend_1">
    <g id="patch_7">
     <path d="M 276.166875 94.828125 
L 699.4 94.828125 
Q 702.2 94.828125 702.2 92.028125 
L 702.2 53.82125 
Q 702.2 51.02125 699.4 51.02125 
L 276.166875 51.02125 
Q 273.366875 51.02125 273.366875 53.82125 
L 273.366875 92.028125 
Q 273.366875 94.828125 276.166875 94.828125 
z
" style="fill: #ffffff; opacity: 0.8; stroke: #cccccc; stroke-linejoin: miter"/>
    </g>
    <g id="line2d_43">
     <path d="M 278.966875 61.742187 
L 292.966875 61.742187 
L 306.966875 61.742187 
" style="fill: none; stroke: #1f77b4; stroke-opacity: 0.8; stroke-width: 2.5; stroke-linecap: round"/>
    </g>
    <g id="text_16">
     <!-- multisin20-3x512-s005-val -->
     <g style="fill: #262626" transform="translate(318.166875 66.642187)scale(0.14 -0.14)">
      <defs>
       <path id="ArialMT-6d" d="M 422 0 
L 422 3319 
L 925 3319 
L 925 2853 
Q 1081 3097 1340 3245 
Q 1600 3394 1931 3394 
Q 2300 3394 2536 3241 
Q 2772 3088 2869 2813 
Q 3263 3394 3894 3394 
Q 4388 3394 4653 3120 
Q 4919 2847 4919 2278 
L 4919 0 
L 4359 0 
L 4359 2091 
Q 4359 2428 4304 2576 
Q 4250 2725 4106 2815 
Q 3963 2906 3769 2906 
Q 3419 2906 3187 2673 
Q 2956 2441 2956 1928 
L 2956 0 
L 2394 0 
L 2394 2156 
Q 2394 2531 2256 2718 
Q 2119 2906 1806 2906 
Q 1569 2906 1367 2781 
Q 1166 2656 1075 2415 
Q 984 2175 984 1722 
L 984 0 
L 422 0 
z
" transform="scale(0.015625)"/>
       <path id="ArialMT-75" d="M 2597 0 
L 2597 488 
Q 2209 -75 1544 -75 
Q 1250 -75 995 37 
Q 741 150 617 320 
Q 494 491 444 738 
Q 409 903 409 1263 
L 409 3319 
L 972 3319 
L 972 1478 
Q 972 1038 1006 884 
Q 1059 663 1231 536 
Q 1403 409 1656 409 
Q 1909 409 2131 539 
Q 2353 669 2445 892 
Q 2538 1116 2538 1541 
L 2538 3319 
L 3100 3319 
L 3100 0 
L 2597 0 
z
" transform="scale(0.015625)"/>
       <path id="ArialMT-74" d="M 1650 503 
L 1731 6 
Q 1494 -44 1306 -44 
Q 1000 -44 831 53 
Q 663 150 594 308 
Q 525 466 525 972 
L 525 2881 
L 113 2881 
L 113 3319 
L 525 3319 
L 525 4141 
L 1084 4478 
L 1084 3319 
L 1650 3319 
L 1650 2881 
L 1084 2881 
L 1084 941 
Q 1084 700 1114 631 
Q 1144 563 1211 522 
Q 1278 481 1403 481 
Q 1497 481 1650 503 
z
" transform="scale(0.015625)"/>
       <path id="ArialMT-6e" d="M 422 0 
L 422 3319 
L 928 3319 
L 928 2847 
Q 1294 3394 1984 3394 
Q 2284 3394 2536 3286 
Q 2788 3178 2913 3003 
Q 3038 2828 3088 2588 
Q 3119 2431 3119 2041 
L 3119 0 
L 2556 0 
L 2556 2019 
Q 2556 2363 2490 2533 
Q 2425 2703 2258 2804 
Q 2091 2906 1866 2906 
Q 1506 2906 1245 2678 
Q 984 2450 984 1813 
L 984 0 
L 422 0 
z
" transform="scale(0.015625)"/>
       <path id="ArialMT-2d" d="M 203 1375 
L 203 1941 
L 1931 1941 
L 1931 1375 
L 203 1375 
z
" transform="scale(0.015625)"/>
       <path id="ArialMT-33" d="M 269 1209 
L 831 1284 
Q 928 806 1161 595 
Q 1394 384 1728 384 
Q 2125 384 2398 659 
Q 2672 934 2672 1341 
Q 2672 1728 2419 1979 
Q 2166 2231 1775 2231 
Q 1616 2231 1378 2169 
L 1441 2663 
Q 1497 2656 1531 2656 
Q 1891 2656 2178 2843 
Q 2466 3031 2466 3422 
Q 2466 3731 2256 3934 
Q 2047 4138 1716 4138 
Q 1388 4138 1169 3931 
Q 950 3725 888 3313 
L 325 3413 
Q 428 3978 793 4289 
Q 1159 4600 1703 4600 
Q 2078 4600 2393 4439 
Q 2709 4278 2876 4000 
Q 3044 3722 3044 3409 
Q 3044 3113 2884 2869 
Q 2725 2625 2413 2481 
Q 2819 2388 3044 2092 
Q 3269 1797 3269 1353 
Q 3269 753 2831 336 
Q 2394 -81 1725 -81 
Q 1122 -81 723 278 
Q 325 638 269 1209 
z
" transform="scale(0.015625)"/>
       <path id="ArialMT-78" d="M 47 0 
L 1259 1725 
L 138 3319 
L 841 3319 
L 1350 2541 
Q 1494 2319 1581 2169 
Q 1719 2375 1834 2534 
L 2394 3319 
L 3066 3319 
L 1919 1756 
L 3153 0 
L 2463 0 
L 1781 1031 
L 1600 1309 
L 728 0 
L 47 0 
z
" transform="scale(0.015625)"/>
       <path id="ArialMT-76" d="M 1344 0 
L 81 3319 
L 675 3319 
L 1388 1331 
Q 1503 1009 1600 663 
Q 1675 925 1809 1294 
L 2547 3319 
L 3125 3319 
L 1869 0 
L 1344 0 
z
" transform="scale(0.015625)"/>
       <path id="ArialMT-61" d="M 2588 409 
Q 2275 144 1986 34 
Q 1697 -75 1366 -75 
Q 819 -75 525 192 
Q 231 459 231 875 
Q 231 1119 342 1320 
Q 453 1522 633 1644 
Q 813 1766 1038 1828 
Q 1203 1872 1538 1913 
Q 2219 1994 2541 2106 
Q 2544 2222 2544 2253 
Q 2544 2597 2384 2738 
Q 2169 2928 1744 2928 
Q 1347 2928 1158 2789 
Q 969 2650 878 2297 
L 328 2372 
Q 403 2725 575 2942 
Q 747 3159 1072 3276 
Q 1397 3394 1825 3394 
Q 2250 3394 2515 3294 
Q 2781 3194 2906 3042 
Q 3031 2891 3081 2659 
Q 3109 2516 3109 2141 
L 3109 1391 
Q 3109 606 3145 398 
Q 3181 191 3288 0 
L 2700 0 
Q 2613 175 2588 409 
z
M 2541 1666 
Q 2234 1541 1622 1453 
Q 1275 1403 1131 1340 
Q 988 1278 909 1158 
Q 831 1038 831 891 
Q 831 666 1001 516 
Q 1172 366 1500 366 
Q 1825 366 2078 508 
Q 2331 650 2450 897 
Q 2541 1088 2541 1459 
L 2541 1666 
z
" transform="scale(0.015625)"/>
      </defs>
      <use xlink:href="#ArialMT-6d"/>
      <use xlink:href="#ArialMT-75" x="83.300781"/>
      <use xlink:href="#ArialMT-6c" x="138.916016"/>
      <use xlink:href="#ArialMT-74" x="161.132812"/>
      <use xlink:href="#ArialMT-69" x="188.916016"/>
      <use xlink:href="#ArialMT-73" x="211.132812"/>
      <use xlink:href="#ArialMT-69" x="261.132812"/>
      <use xlink:href="#ArialMT-6e" x="283.349609"/>
      <use xlink:href="#ArialMT-32" x="338.964844"/>
      <use xlink:href="#ArialMT-30" x="394.580078"/>
      <use xlink:href="#ArialMT-2d" x="450.195312"/>
      <use xlink:href="#ArialMT-33" x="483.496094"/>
      <use xlink:href="#ArialMT-78" x="539.111328"/>
      <use xlink:href="#ArialMT-35" x="589.111328"/>
      <use xlink:href="#ArialMT-31" x="644.726562"/>
      <use xlink:href="#ArialMT-32" x="700.341797"/>
      <use xlink:href="#ArialMT-2d" x="755.957031"/>
      <use xlink:href="#ArialMT-73" x="789.257812"/>
      <use xlink:href="#ArialMT-30" x="839.257812"/>
      <use xlink:href="#ArialMT-30" x="894.873047"/>
      <use xlink:href="#ArialMT-35" x="950.488281"/>
      <use xlink:href="#ArialMT-2d" x="1006.103516"/>
      <use xlink:href="#ArialMT-76" x="1039.404297"/>
      <use xlink:href="#ArialMT-61" x="1089.404297"/>
      <use xlink:href="#ArialMT-6c" x="1145.019531"/>
     </g>
    </g>
    <g id="line2d_44">
     <path d="M 278.966875 81.545625 
L 292.966875 81.545625 
L 306.966875 81.545625 
" style="fill: none; stroke: #ff7f0e; stroke-opacity: 0.8; stroke-width: 2.5; stroke-linecap: round"/>
    </g>
    <g id="text_17">
     <!-- multisin20-3x512-s05-val -->
     <g style="fill: #262626" transform="translate(318.166875 86.445625)scale(0.14 -0.14)">
      <use xlink:href="#ArialMT-6d"/>
      <use xlink:href="#ArialMT-75" x="83.300781"/>
      <use xlink:href="#ArialMT-6c" x="138.916016"/>
      <use xlink:href="#ArialMT-74" x="161.132812"/>
      <use xlink:href="#ArialMT-69" x="188.916016"/>
      <use xlink:href="#ArialMT-73" x="211.132812"/>
      <use xlink:href="#ArialMT-69" x="261.132812"/>
      <use xlink:href="#ArialMT-6e" x="283.349609"/>
      <use xlink:href="#ArialMT-32" x="338.964844"/>
      <use xlink:href="#ArialMT-30" x="394.580078"/>
      <use xlink:href="#ArialMT-2d" x="450.195312"/>
      <use xlink:href="#ArialMT-33" x="483.496094"/>
      <use xlink:href="#ArialMT-78" x="539.111328"/>
      <use xlink:href="#ArialMT-35" x="589.111328"/>
      <use xlink:href="#ArialMT-31" x="644.726562"/>
      <use xlink:href="#ArialMT-32" x="700.341797"/>
      <use xlink:href="#ArialMT-2d" x="755.957031"/>
      <use xlink:href="#ArialMT-73" x="789.257812"/>
      <use xlink:href="#ArialMT-30" x="839.257812"/>
      <use xlink:href="#ArialMT-35" x="894.873047"/>
      <use xlink:href="#ArialMT-2d" x="950.488281"/>
      <use xlink:href="#ArialMT-76" x="983.789062"/>
      <use xlink:href="#ArialMT-61" x="1033.789062"/>
      <use xlink:href="#ArialMT-6c" x="1089.404297"/>
     </g>
    </g>
    <g id="line2d_45">
     <path d="M 509.56875 61.742187 
L 523.56875 61.742187 
L 537.56875 61.742187 
" style="fill: none; stroke: #2ca02c; stroke-opacity: 0.8; stroke-width: 2.5; stroke-linecap: round"/>
    </g>
    <g id="text_18">
     <!-- multisin20-3x512-s5-val -->
     <g style="fill: #262626" transform="translate(548.76875 66.642187)scale(0.14 -0.14)">
      <use xlink:href="#ArialMT-6d"/>
      <use xlink:href="#ArialMT-75" x="83.300781"/>
      <use xlink:href="#ArialMT-6c" x="138.916016"/>
      <use xlink:href="#ArialMT-74" x="161.132812"/>
      <use xlink:href="#ArialMT-69" x="188.916016"/>
      <use xlink:href="#ArialMT-73" x="211.132812"/>
      <use xlink:href="#ArialMT-69" x="261.132812"/>
      <use xlink:href="#ArialMT-6e" x="283.349609"/>
      <use xlink:href="#ArialMT-32" x="338.964844"/>
      <use xlink:href="#ArialMT-30" x="394.580078"/>
      <use xlink:href="#ArialMT-2d" x="450.195312"/>
      <use xlink:href="#ArialMT-33" x="483.496094"/>
      <use xlink:href="#ArialMT-78" x="539.111328"/>
      <use xlink:href="#ArialMT-35" x="589.111328"/>
      <use xlink:href="#ArialMT-31" x="644.726562"/>
      <use xlink:href="#ArialMT-32" x="700.341797"/>
      <use xlink:href="#ArialMT-2d" x="755.957031"/>
      <use xlink:href="#ArialMT-73" x="789.257812"/>
      <use xlink:href="#ArialMT-35" x="839.257812"/>
      <use xlink:href="#ArialMT-2d" x="894.873047"/>
      <use xlink:href="#ArialMT-76" x="928.173828"/>
      <use xlink:href="#ArialMT-61" x="978.173828"/>
      <use xlink:href="#ArialMT-6c" x="1033.789062"/>
     </g>
    </g>
    <g id="line2d_46">
     <path d="M 509.56875 81.545625 
L 523.56875 81.545625 
L 537.56875 81.545625 
" style="fill: none; stroke: #d62728; stroke-opacity: 0.8; stroke-width: 2.5; stroke-linecap: round"/>
    </g>
    <g id="text_19">
     <!-- multisin20-3x512-sl-val -->
     <g style="fill: #262626" transform="translate(548.76875 86.445625)scale(0.14 -0.14)">
      <use xlink:href="#ArialMT-6d"/>
      <use xlink:href="#ArialMT-75" x="83.300781"/>
      <use xlink:href="#ArialMT-6c" x="138.916016"/>
      <use xlink:href="#ArialMT-74" x="161.132812"/>
      <use xlink:href="#ArialMT-69" x="188.916016"/>
      <use xlink:href="#ArialMT-73" x="211.132812"/>
      <use xlink:href="#ArialMT-69" x="261.132812"/>
      <use xlink:href="#ArialMT-6e" x="283.349609"/>
      <use xlink:href="#ArialMT-32" x="338.964844"/>
      <use xlink:href="#ArialMT-30" x="394.580078"/>
      <use xlink:href="#ArialMT-2d" x="450.195312"/>
      <use xlink:href="#ArialMT-33" x="483.496094"/>
      <use xlink:href="#ArialMT-78" x="539.111328"/>
      <use xlink:href="#ArialMT-35" x="589.111328"/>
      <use xlink:href="#ArialMT-31" x="644.726562"/>
      <use xlink:href="#ArialMT-32" x="700.341797"/>
      <use xlink:href="#ArialMT-2d" x="755.957031"/>
      <use xlink:href="#ArialMT-73" x="789.257812"/>
      <use xlink:href="#ArialMT-6c" x="839.257812"/>
      <use xlink:href="#ArialMT-2d" x="861.474609"/>
      <use xlink:href="#ArialMT-76" x="894.775391"/>
      <use xlink:href="#ArialMT-61" x="944.775391"/>
      <use xlink:href="#ArialMT-6c" x="1000.390625"/>
     </g>
    </g>
   </g>
  </g>
  <g id="text_20">
   <!-- In Domain Log Likelihood - misspecified tensin models -->
   <g style="fill: #262626" transform="translate(70.535625 28.99125)scale(0.24 -0.24)">
    <defs>
     <path id="ArialMT-49" d="M 597 0 
L 597 4581 
L 1203 4581 
L 1203 0 
L 597 0 
z
" transform="scale(0.015625)"/>
     <path id="ArialMT-44" d="M 494 0 
L 494 4581 
L 2072 4581 
Q 2606 4581 2888 4516 
Q 3281 4425 3559 4188 
Q 3922 3881 4101 3404 
Q 4281 2928 4281 2316 
Q 4281 1794 4159 1391 
Q 4038 988 3847 723 
Q 3656 459 3429 307 
Q 3203 156 2883 78 
Q 2563 0 2147 0 
L 494 0 
z
M 1100 541 
L 2078 541 
Q 2531 541 2789 625 
Q 3047 709 3200 863 
Q 3416 1078 3536 1442 
Q 3656 1806 3656 2325 
Q 3656 3044 3420 3430 
Q 3184 3816 2847 3947 
Q 2603 4041 2063 4041 
L 1100 4041 
L 1100 541 
z
" transform="scale(0.015625)"/>
     <path id="ArialMT-4c" d="M 469 0 
L 469 4581 
L 1075 4581 
L 1075 541 
L 3331 541 
L 3331 0 
L 469 0 
z
" transform="scale(0.015625)"/>
     <path id="ArialMT-66" d="M 556 0 
L 556 2881 
L 59 2881 
L 59 3319 
L 556 3319 
L 556 3672 
Q 556 4006 616 4169 
Q 697 4388 901 4523 
Q 1106 4659 1475 4659 
Q 1713 4659 2000 4603 
L 1916 4113 
Q 1741 4144 1584 4144 
Q 1328 4144 1222 4034 
Q 1116 3925 1116 3625 
L 1116 3319 
L 1763 3319 
L 1763 2881 
L 1116 2881 
L 1116 0 
L 556 0 
z
" transform="scale(0.015625)"/>
    </defs>
    <use xlink:href="#ArialMT-49"/>
    <use xlink:href="#ArialMT-6e" x="27.783203"/>
    <use xlink:href="#ArialMT-20" x="83.398438"/>
    <use xlink:href="#ArialMT-44" x="111.181641"/>
    <use xlink:href="#ArialMT-6f" x="183.398438"/>
    <use xlink:href="#ArialMT-6d" x="239.013672"/>
    <use xlink:href="#ArialMT-61" x="322.314453"/>
    <use xlink:href="#ArialMT-69" x="377.929688"/>
    <use xlink:href="#ArialMT-6e" x="400.146484"/>
    <use xlink:href="#ArialMT-20" x="455.761719"/>
    <use xlink:href="#ArialMT-4c" x="483.544922"/>
    <use xlink:href="#ArialMT-6f" x="539.160156"/>
    <use xlink:href="#ArialMT-67" x="594.775391"/>
    <use xlink:href="#ArialMT-20" x="650.390625"/>
    <use xlink:href="#ArialMT-4c" x="678.173828"/>
    <use xlink:href="#ArialMT-69" x="733.789062"/>
    <use xlink:href="#ArialMT-6b" x="756.005859"/>
    <use xlink:href="#ArialMT-65" x="806.005859"/>
    <use xlink:href="#ArialMT-6c" x="861.621094"/>
    <use xlink:href="#ArialMT-69" x="883.837891"/>
    <use xlink:href="#ArialMT-68" x="906.054688"/>
    <use xlink:href="#ArialMT-6f" x="961.669922"/>
    <use xlink:href="#ArialMT-6f" x="1017.285156"/>
    <use xlink:href="#ArialMT-64" x="1072.900391"/>
    <use xlink:href="#ArialMT-20" x="1128.515625"/>
    <use xlink:href="#ArialMT-2d" x="1156.298828"/>
    <use xlink:href="#ArialMT-20" x="1189.599609"/>
    <use xlink:href="#ArialMT-6d" x="1217.382812"/>
    <use xlink:href="#ArialMT-69" x="1300.683594"/>
    <use xlink:href="#ArialMT-73" x="1322.900391"/>
    <use xlink:href="#ArialMT-73" x="1372.900391"/>
    <use xlink:href="#ArialMT-70" x="1422.900391"/>
    <use xlink:href="#ArialMT-65" x="1478.515625"/>
    <use xlink:href="#ArialMT-63" x="1534.130859"/>
    <use xlink:href="#ArialMT-69" x="1584.130859"/>
    <use xlink:href="#ArialMT-66" x="1606.347656"/>
    <use xlink:href="#ArialMT-69" x="1634.130859"/>
    <use xlink:href="#ArialMT-65" x="1656.347656"/>
    <use xlink:href="#ArialMT-64" x="1711.962891"/>
    <use xlink:href="#ArialMT-20" x="1767.578125"/>
    <use xlink:href="#ArialMT-74" x="1795.361328"/>
    <use xlink:href="#ArialMT-65" x="1823.144531"/>
    <use xlink:href="#ArialMT-6e" x="1878.759766"/>
    <use xlink:href="#ArialMT-73" x="1934.375"/>
    <use xlink:href="#ArialMT-69" x="1984.375"/>
    <use xlink:href="#ArialMT-6e" x="2006.591797"/>
    <use xlink:href="#ArialMT-20" x="2062.207031"/>
    <use xlink:href="#ArialMT-6d" x="2089.990234"/>
    <use xlink:href="#ArialMT-6f" x="2173.291016"/>
    <use xlink:href="#ArialMT-64" x="2228.90625"/>
    <use xlink:href="#ArialMT-65" x="2284.521484"/>
    <use xlink:href="#ArialMT-6c" x="2340.136719"/>
    <use xlink:href="#ArialMT-73" x="2362.353516"/>
   </g>
  </g>
 </g>
 <defs>
  <clipPath id="pa703ab3741">
   <rect x="62.6181" y="44.02125" width="646.5819" height="482.81875"/>
  </clipPath>
 </defs>
</svg>
