<?xml version="1.0" encoding="utf-8" standalone="no"?>
<!DOCTYPE svg PUBLIC "-//W3C//DTD SVG 1.1//EN"
  "http://www.w3.org/Graphics/SVG/1.1/DTD/svg11.dtd">
<svg xmlns:xlink="http://www.w3.org/1999/xlink" width="720pt" height="576pt" viewBox="0 0 720 576" xmlns="http://www.w3.org/2000/svg" version="1.1">
 <metadata>
  <rdf:RDF xmlns:dc="http://purl.org/dc/elements/1.1/" xmlns:cc="http://creativecommons.org/ns#" xmlns:rdf="http://www.w3.org/1999/02/22-rdf-syntax-ns#">
   <cc:Work>
    <dc:type rdf:resource="http://purl.org/dc/dcmitype/StillImage"/>
    <dc:date>2023-09-11T11:31:57.527085</dc:date>
    <dc:format>image/svg+xml</dc:format>
    <dc:creator>
     <cc:Agent>
      <dc:title>Matplotlib v3.5.1, https://matplotlib.org/</dc:title>
     </cc:Agent>
    </dc:creator>
   </cc:Work>
  </rdf:RDF>
 </metadata>
 <defs>
  <style type="text/css">*{stroke-linejoin: round; stroke-linecap: butt}</style>
 </defs>
 <g id="figure_1">
  <g id="patch_1">
   <path d="M 0 576 
L 720 576 
L 720 0 
L 0 0 
z
" style="fill: #ffffff"/>
  </g>
  <g id="axes_1">
   <g id="patch_2">
    <path d="M 62.6181 526.84 
L 709.2 526.84 
L 709.2 44.02125 
L 62.6181 44.02125 
z
" style="fill: #ffffff"/>
   </g>
   <g id="matplotlib.axis_1">
    <g id="xtick_1">
     <g id="line2d_1">
      <path d="M 92.008187 526.84 
L 92.008187 44.02125 
" clip-path="url(#p26fc4c4550)" style="fill: none; stroke: #cccccc; stroke-width: 0.8; stroke-linecap: round"/>
     </g>
     <g id="line2d_2">
      <defs>
       <path id="m640dec9756" d="M 0 0 
L 0 3.5 
" style="stroke: #262626; stroke-width: 0.8"/>
      </defs>
      <g>
       <use xlink:href="#m640dec9756" x="92.008187" y="526.84" style="fill: #262626; stroke: #262626; stroke-width: 0.8"/>
      </g>
     </g>
     <g id="text_1">
      <!-- 0 -->
      <g style="fill: #262626" transform="translate(89.227718 540.997813)scale(0.1 -0.1)">
       <defs>
        <path id="ArialMT-30" d="M 266 2259 
Q 266 3072 433 3567 
Q 600 4063 929 4331 
Q 1259 4600 1759 4600 
Q 2128 4600 2406 4451 
Q 2684 4303 2865 4023 
Q 3047 3744 3150 3342 
Q 3253 2941 3253 2259 
Q 3253 1453 3087 958 
Q 2922 463 2592 192 
Q 2263 -78 1759 -78 
Q 1097 -78 719 397 
Q 266 969 266 2259 
z
M 844 2259 
Q 844 1131 1108 757 
Q 1372 384 1759 384 
Q 2147 384 2411 759 
Q 2675 1134 2675 2259 
Q 2675 3391 2411 3762 
Q 2147 4134 1753 4134 
Q 1366 4134 1134 3806 
Q 844 3388 844 2259 
z
" transform="scale(0.015625)"/>
       </defs>
       <use xlink:href="#ArialMT-30"/>
      </g>
     </g>
    </g>
    <g id="xtick_2">
     <g id="line2d_3">
      <path d="M 165.852625 526.84 
L 165.852625 44.02125 
" clip-path="url(#p26fc4c4550)" style="fill: none; stroke: #cccccc; stroke-width: 0.8; stroke-linecap: round"/>
     </g>
     <g id="line2d_4">
      <g>
       <use xlink:href="#m640dec9756" x="165.852625" y="526.84" style="fill: #262626; stroke: #262626; stroke-width: 0.8"/>
      </g>
     </g>
     <g id="text_2">
      <!-- 25 -->
      <g style="fill: #262626" transform="translate(160.291687 540.997813)scale(0.1 -0.1)">
       <defs>
        <path id="ArialMT-32" d="M 3222 541 
L 3222 0 
L 194 0 
Q 188 203 259 391 
Q 375 700 629 1000 
Q 884 1300 1366 1694 
Q 2113 2306 2375 2664 
Q 2638 3022 2638 3341 
Q 2638 3675 2398 3904 
Q 2159 4134 1775 4134 
Q 1369 4134 1125 3890 
Q 881 3647 878 3216 
L 300 3275 
Q 359 3922 746 4261 
Q 1134 4600 1788 4600 
Q 2447 4600 2831 4234 
Q 3216 3869 3216 3328 
Q 3216 3053 3103 2787 
Q 2991 2522 2730 2228 
Q 2469 1934 1863 1422 
Q 1356 997 1212 845 
Q 1069 694 975 541 
L 3222 541 
z
" transform="scale(0.015625)"/>
        <path id="ArialMT-35" d="M 266 1200 
L 856 1250 
Q 922 819 1161 601 
Q 1400 384 1738 384 
Q 2144 384 2425 690 
Q 2706 997 2706 1503 
Q 2706 1984 2436 2262 
Q 2166 2541 1728 2541 
Q 1456 2541 1237 2417 
Q 1019 2294 894 2097 
L 366 2166 
L 809 4519 
L 3088 4519 
L 3088 3981 
L 1259 3981 
L 1013 2750 
Q 1425 3038 1878 3038 
Q 2478 3038 2890 2622 
Q 3303 2206 3303 1553 
Q 3303 931 2941 478 
Q 2500 -78 1738 -78 
Q 1113 -78 717 272 
Q 322 622 266 1200 
z
" transform="scale(0.015625)"/>
       </defs>
       <use xlink:href="#ArialMT-32"/>
       <use xlink:href="#ArialMT-35" x="55.615234"/>
      </g>
     </g>
    </g>
    <g id="xtick_3">
     <g id="line2d_5">
      <path d="M 239.697063 526.84 
L 239.697063 44.02125 
" clip-path="url(#p26fc4c4550)" style="fill: none; stroke: #cccccc; stroke-width: 0.8; stroke-linecap: round"/>
     </g>
     <g id="line2d_6">
      <g>
       <use xlink:href="#m640dec9756" x="239.697063" y="526.84" style="fill: #262626; stroke: #262626; stroke-width: 0.8"/>
      </g>
     </g>
     <g id="text_3">
      <!-- 50 -->
      <g style="fill: #262626" transform="translate(234.136125 540.997813)scale(0.1 -0.1)">
       <use xlink:href="#ArialMT-35"/>
       <use xlink:href="#ArialMT-30" x="55.615234"/>
      </g>
     </g>
    </g>
    <g id="xtick_4">
     <g id="line2d_7">
      <path d="M 313.541501 526.84 
L 313.541501 44.02125 
" clip-path="url(#p26fc4c4550)" style="fill: none; stroke: #cccccc; stroke-width: 0.8; stroke-linecap: round"/>
     </g>
     <g id="line2d_8">
      <g>
       <use xlink:href="#m640dec9756" x="313.541501" y="526.84" style="fill: #262626; stroke: #262626; stroke-width: 0.8"/>
      </g>
     </g>
     <g id="text_4">
      <!-- 75 -->
      <g style="fill: #262626" transform="translate(307.980563 540.997813)scale(0.1 -0.1)">
       <defs>
        <path id="ArialMT-37" d="M 303 3981 
L 303 4522 
L 3269 4522 
L 3269 4084 
Q 2831 3619 2401 2847 
Q 1972 2075 1738 1259 
Q 1569 684 1522 0 
L 944 0 
Q 953 541 1156 1306 
Q 1359 2072 1739 2783 
Q 2119 3494 2547 3981 
L 303 3981 
z
" transform="scale(0.015625)"/>
       </defs>
       <use xlink:href="#ArialMT-37"/>
       <use xlink:href="#ArialMT-35" x="55.615234"/>
      </g>
     </g>
    </g>
    <g id="xtick_5">
     <g id="line2d_9">
      <path d="M 387.385939 526.84 
L 387.385939 44.02125 
" clip-path="url(#p26fc4c4550)" style="fill: none; stroke: #cccccc; stroke-width: 0.8; stroke-linecap: round"/>
     </g>
     <g id="line2d_10">
      <g>
       <use xlink:href="#m640dec9756" x="387.385939" y="526.84" style="fill: #262626; stroke: #262626; stroke-width: 0.8"/>
      </g>
     </g>
     <g id="text_5">
      <!-- 100 -->
      <g style="fill: #262626" transform="translate(379.044533 540.997813)scale(0.1 -0.1)">
       <defs>
        <path id="ArialMT-31" d="M 2384 0 
L 1822 0 
L 1822 3584 
Q 1619 3391 1289 3197 
Q 959 3003 697 2906 
L 697 3450 
Q 1169 3672 1522 3987 
Q 1875 4303 2022 4600 
L 2384 4600 
L 2384 0 
z
" transform="scale(0.015625)"/>
       </defs>
       <use xlink:href="#ArialMT-31"/>
       <use xlink:href="#ArialMT-30" x="55.615234"/>
       <use xlink:href="#ArialMT-30" x="111.230469"/>
      </g>
     </g>
    </g>
    <g id="xtick_6">
     <g id="line2d_11">
      <path d="M 461.230377 526.84 
L 461.230377 44.02125 
" clip-path="url(#p26fc4c4550)" style="fill: none; stroke: #cccccc; stroke-width: 0.8; stroke-linecap: round"/>
     </g>
     <g id="line2d_12">
      <g>
       <use xlink:href="#m640dec9756" x="461.230377" y="526.84" style="fill: #262626; stroke: #262626; stroke-width: 0.8"/>
      </g>
     </g>
     <g id="text_6">
      <!-- 125 -->
      <g style="fill: #262626" transform="translate(452.888971 540.997813)scale(0.1 -0.1)">
       <use xlink:href="#ArialMT-31"/>
       <use xlink:href="#ArialMT-32" x="55.615234"/>
       <use xlink:href="#ArialMT-35" x="111.230469"/>
      </g>
     </g>
    </g>
    <g id="xtick_7">
     <g id="line2d_13">
      <path d="M 535.074815 526.84 
L 535.074815 44.02125 
" clip-path="url(#p26fc4c4550)" style="fill: none; stroke: #cccccc; stroke-width: 0.8; stroke-linecap: round"/>
     </g>
     <g id="line2d_14">
      <g>
       <use xlink:href="#m640dec9756" x="535.074815" y="526.84" style="fill: #262626; stroke: #262626; stroke-width: 0.8"/>
      </g>
     </g>
     <g id="text_7">
      <!-- 150 -->
      <g style="fill: #262626" transform="translate(526.733409 540.997813)scale(0.1 -0.1)">
       <use xlink:href="#ArialMT-31"/>
       <use xlink:href="#ArialMT-35" x="55.615234"/>
       <use xlink:href="#ArialMT-30" x="111.230469"/>
      </g>
     </g>
    </g>
    <g id="xtick_8">
     <g id="line2d_15">
      <path d="M 608.919253 526.84 
L 608.919253 44.02125 
" clip-path="url(#p26fc4c4550)" style="fill: none; stroke: #cccccc; stroke-width: 0.8; stroke-linecap: round"/>
     </g>
     <g id="line2d_16">
      <g>
       <use xlink:href="#m640dec9756" x="608.919253" y="526.84" style="fill: #262626; stroke: #262626; stroke-width: 0.8"/>
      </g>
     </g>
     <g id="text_8">
      <!-- 175 -->
      <g style="fill: #262626" transform="translate(600.577847 540.997813)scale(0.1 -0.1)">
       <use xlink:href="#ArialMT-31"/>
       <use xlink:href="#ArialMT-37" x="55.615234"/>
       <use xlink:href="#ArialMT-35" x="111.230469"/>
      </g>
     </g>
    </g>
    <g id="xtick_9">
     <g id="line2d_17">
      <path d="M 682.763691 526.84 
L 682.763691 44.02125 
" clip-path="url(#p26fc4c4550)" style="fill: none; stroke: #cccccc; stroke-width: 0.8; stroke-linecap: round"/>
     </g>
     <g id="line2d_18">
      <g>
       <use xlink:href="#m640dec9756" x="682.763691" y="526.84" style="fill: #262626; stroke: #262626; stroke-width: 0.8"/>
      </g>
     </g>
     <g id="text_9">
      <!-- 200 -->
      <g style="fill: #262626" transform="translate(674.422285 540.997813)scale(0.1 -0.1)">
       <use xlink:href="#ArialMT-32"/>
       <use xlink:href="#ArialMT-30" x="55.615234"/>
       <use xlink:href="#ArialMT-30" x="111.230469"/>
      </g>
     </g>
    </g>
    <g id="text_10">
     <!-- pr. 50 epochs -->
     <g style="fill: #262626" transform="translate(325.868425 561.360312)scale(0.2 -0.2)">
      <defs>
       <path id="ArialMT-70" d="M 422 -1272 
L 422 3319 
L 934 3319 
L 934 2888 
Q 1116 3141 1344 3267 
Q 1572 3394 1897 3394 
Q 2322 3394 2647 3175 
Q 2972 2956 3137 2557 
Q 3303 2159 3303 1684 
Q 3303 1175 3120 767 
Q 2938 359 2589 142 
Q 2241 -75 1856 -75 
Q 1575 -75 1351 44 
Q 1128 163 984 344 
L 984 -1272 
L 422 -1272 
z
M 931 1641 
Q 931 1000 1190 694 
Q 1450 388 1819 388 
Q 2194 388 2461 705 
Q 2728 1022 2728 1688 
Q 2728 2322 2467 2637 
Q 2206 2953 1844 2953 
Q 1484 2953 1207 2617 
Q 931 2281 931 1641 
z
" transform="scale(0.015625)"/>
       <path id="ArialMT-72" d="M 416 0 
L 416 3319 
L 922 3319 
L 922 2816 
Q 1116 3169 1280 3281 
Q 1444 3394 1641 3394 
Q 1925 3394 2219 3213 
L 2025 2691 
Q 1819 2813 1613 2813 
Q 1428 2813 1281 2702 
Q 1134 2591 1072 2394 
Q 978 2094 978 1738 
L 978 0 
L 416 0 
z
" transform="scale(0.015625)"/>
       <path id="ArialMT-2e" d="M 581 0 
L 581 641 
L 1222 641 
L 1222 0 
L 581 0 
z
" transform="scale(0.015625)"/>
       <path id="ArialMT-20" transform="scale(0.015625)"/>
       <path id="ArialMT-65" d="M 2694 1069 
L 3275 997 
Q 3138 488 2766 206 
Q 2394 -75 1816 -75 
Q 1088 -75 661 373 
Q 234 822 234 1631 
Q 234 2469 665 2931 
Q 1097 3394 1784 3394 
Q 2450 3394 2872 2941 
Q 3294 2488 3294 1666 
Q 3294 1616 3291 1516 
L 816 1516 
Q 847 969 1125 678 
Q 1403 388 1819 388 
Q 2128 388 2347 550 
Q 2566 713 2694 1069 
z
M 847 1978 
L 2700 1978 
Q 2663 2397 2488 2606 
Q 2219 2931 1791 2931 
Q 1403 2931 1139 2672 
Q 875 2413 847 1978 
z
" transform="scale(0.015625)"/>
       <path id="ArialMT-6f" d="M 213 1659 
Q 213 2581 725 3025 
Q 1153 3394 1769 3394 
Q 2453 3394 2887 2945 
Q 3322 2497 3322 1706 
Q 3322 1066 3130 698 
Q 2938 331 2570 128 
Q 2203 -75 1769 -75 
Q 1072 -75 642 372 
Q 213 819 213 1659 
z
M 791 1659 
Q 791 1022 1069 705 
Q 1347 388 1769 388 
Q 2188 388 2466 706 
Q 2744 1025 2744 1678 
Q 2744 2294 2464 2611 
Q 2184 2928 1769 2928 
Q 1347 2928 1069 2612 
Q 791 2297 791 1659 
z
" transform="scale(0.015625)"/>
       <path id="ArialMT-63" d="M 2588 1216 
L 3141 1144 
Q 3050 572 2676 248 
Q 2303 -75 1759 -75 
Q 1078 -75 664 370 
Q 250 816 250 1647 
Q 250 2184 428 2587 
Q 606 2991 970 3192 
Q 1334 3394 1763 3394 
Q 2303 3394 2647 3120 
Q 2991 2847 3088 2344 
L 2541 2259 
Q 2463 2594 2264 2762 
Q 2066 2931 1784 2931 
Q 1359 2931 1093 2626 
Q 828 2322 828 1663 
Q 828 994 1084 691 
Q 1341 388 1753 388 
Q 2084 388 2306 591 
Q 2528 794 2588 1216 
z
" transform="scale(0.015625)"/>
       <path id="ArialMT-68" d="M 422 0 
L 422 4581 
L 984 4581 
L 984 2938 
Q 1378 3394 1978 3394 
Q 2347 3394 2619 3248 
Q 2891 3103 3008 2847 
Q 3125 2591 3125 2103 
L 3125 0 
L 2563 0 
L 2563 2103 
Q 2563 2525 2380 2717 
Q 2197 2909 1863 2909 
Q 1613 2909 1392 2779 
Q 1172 2650 1078 2428 
Q 984 2206 984 1816 
L 984 0 
L 422 0 
z
" transform="scale(0.015625)"/>
       <path id="ArialMT-73" d="M 197 991 
L 753 1078 
Q 800 744 1014 566 
Q 1228 388 1613 388 
Q 2000 388 2187 545 
Q 2375 703 2375 916 
Q 2375 1106 2209 1216 
Q 2094 1291 1634 1406 
Q 1016 1563 777 1677 
Q 538 1791 414 1992 
Q 291 2194 291 2438 
Q 291 2659 392 2848 
Q 494 3038 669 3163 
Q 800 3259 1026 3326 
Q 1253 3394 1513 3394 
Q 1903 3394 2198 3281 
Q 2494 3169 2634 2976 
Q 2775 2784 2828 2463 
L 2278 2388 
Q 2241 2644 2061 2787 
Q 1881 2931 1553 2931 
Q 1166 2931 1000 2803 
Q 834 2675 834 2503 
Q 834 2394 903 2306 
Q 972 2216 1119 2156 
Q 1203 2125 1616 2013 
Q 2213 1853 2448 1751 
Q 2684 1650 2818 1456 
Q 2953 1263 2953 975 
Q 2953 694 2789 445 
Q 2625 197 2315 61 
Q 2006 -75 1616 -75 
Q 969 -75 630 194 
Q 291 463 197 991 
z
" transform="scale(0.015625)"/>
      </defs>
      <use xlink:href="#ArialMT-70"/>
      <use xlink:href="#ArialMT-72" x="55.615234"/>
      <use xlink:href="#ArialMT-2e" x="83.416016"/>
      <use xlink:href="#ArialMT-20" x="111.199219"/>
      <use xlink:href="#ArialMT-35" x="138.982422"/>
      <use xlink:href="#ArialMT-30" x="194.597656"/>
      <use xlink:href="#ArialMT-20" x="250.212891"/>
      <use xlink:href="#ArialMT-65" x="277.996094"/>
      <use xlink:href="#ArialMT-70" x="333.611328"/>
      <use xlink:href="#ArialMT-6f" x="389.226562"/>
      <use xlink:href="#ArialMT-63" x="444.841797"/>
      <use xlink:href="#ArialMT-68" x="494.841797"/>
      <use xlink:href="#ArialMT-73" x="550.457031"/>
     </g>
    </g>
   </g>
   <g id="matplotlib.axis_2">
    <g id="ytick_1">
     <g id="line2d_19">
      <path d="M 62.6181 500.858571 
L 709.2 500.858571 
" clip-path="url(#p26fc4c4550)" style="fill: none; stroke: #cccccc; stroke-width: 0.8; stroke-linecap: round"/>
     </g>
     <g id="line2d_20">
      <defs>
       <path id="m5c2a1c3d1c" d="M 0 0 
L -3.5 0 
" style="stroke: #262626; stroke-width: 0.8"/>
      </defs>
      <g>
       <use xlink:href="#m5c2a1c3d1c" x="62.6181" y="500.858571" style="fill: #262626; stroke: #262626; stroke-width: 0.8"/>
      </g>
     </g>
     <g id="text_11">
      <!-- $\mathdefault{-10^{2}}$ -->
      <g style="fill: #262626" transform="translate(34.0181 506.014821)scale(0.1 -0.1)">
       <defs>
        <path id="ArialMT-2212" d="M 3381 1997 
L 356 1997 
L 356 2522 
L 3381 2522 
L 3381 1997 
z
" transform="scale(0.015625)"/>
       </defs>
       <use xlink:href="#ArialMT-2212" transform="translate(0 0.99375)"/>
       <use xlink:href="#ArialMT-31" transform="translate(58.398438 0.99375)"/>
       <use xlink:href="#ArialMT-30" transform="translate(114.013672 0.99375)"/>
       <use xlink:href="#ArialMT-32" transform="translate(171.37125 70.6875)scale(0.7)"/>
      </g>
     </g>
    </g>
    <g id="ytick_2">
     <g id="line2d_21">
      <path d="M 62.6181 365.122791 
L 709.2 365.122791 
" clip-path="url(#p26fc4c4550)" style="fill: none; stroke: #cccccc; stroke-width: 0.8; stroke-linecap: round"/>
     </g>
     <g id="line2d_22">
      <g>
       <use xlink:href="#m5c2a1c3d1c" x="62.6181" y="365.122791" style="fill: #262626; stroke: #262626; stroke-width: 0.8"/>
      </g>
     </g>
     <g id="text_12">
      <!-- $\mathdefault{-10^{1}}$ -->
      <g style="fill: #262626" transform="translate(34.0181 370.279041)scale(0.1 -0.1)">
       <use xlink:href="#ArialMT-2212" transform="translate(0 0.99375)"/>
       <use xlink:href="#ArialMT-31" transform="translate(58.398438 0.99375)"/>
       <use xlink:href="#ArialMT-30" transform="translate(114.013672 0.99375)"/>
       <use xlink:href="#ArialMT-31" transform="translate(171.37125 70.6875)scale(0.7)"/>
      </g>
     </g>
    </g>
    <g id="ytick_3">
     <g id="line2d_23">
      <path d="M 62.6181 194.838784 
L 709.2 194.838784 
" clip-path="url(#p26fc4c4550)" style="fill: none; stroke: #cccccc; stroke-width: 0.8; stroke-linecap: round"/>
     </g>
     <g id="line2d_24">
      <g>
       <use xlink:href="#m5c2a1c3d1c" x="62.6181" y="194.838784" style="fill: #262626; stroke: #262626; stroke-width: 0.8"/>
      </g>
     </g>
     <g id="text_13">
      <!-- $\mathdefault{-10^{0}}$ -->
      <g style="fill: #262626" transform="translate(34.0181 199.995034)scale(0.1 -0.1)">
       <use xlink:href="#ArialMT-2212" transform="translate(0 0.99375)"/>
       <use xlink:href="#ArialMT-31" transform="translate(58.398438 0.99375)"/>
       <use xlink:href="#ArialMT-30" transform="translate(114.013672 0.99375)"/>
       <use xlink:href="#ArialMT-30" transform="translate(171.37125 70.6875)scale(0.7)"/>
      </g>
     </g>
    </g>
    <g id="ytick_4">
     <g id="line2d_25">
      <path d="M 62.6181 119.430017 
L 709.2 119.430017 
" clip-path="url(#p26fc4c4550)" style="fill: none; stroke: #cccccc; stroke-width: 0.8; stroke-linecap: round"/>
     </g>
     <g id="line2d_26">
      <g>
       <use xlink:href="#m5c2a1c3d1c" x="62.6181" y="119.430017" style="fill: #262626; stroke: #262626; stroke-width: 0.8"/>
      </g>
     </g>
     <g id="text_14">
      <!-- $\mathdefault{0}$ -->
      <g style="fill: #262626" transform="translate(50.0181 123.008923)scale(0.1 -0.1)">
       <use xlink:href="#ArialMT-30" transform="translate(0 0.125)"/>
      </g>
     </g>
    </g>
    <g id="text_15">
     <!-- log likelihood -->
     <g style="fill: #262626" transform="translate(25.808725 343.244688)rotate(-90)scale(0.2 -0.2)">
      <defs>
       <path id="ArialMT-6c" d="M 409 0 
L 409 4581 
L 972 4581 
L 972 0 
L 409 0 
z
" transform="scale(0.015625)"/>
       <path id="ArialMT-67" d="M 319 -275 
L 866 -356 
Q 900 -609 1056 -725 
Q 1266 -881 1628 -881 
Q 2019 -881 2231 -725 
Q 2444 -569 2519 -288 
Q 2563 -116 2559 434 
Q 2191 0 1641 0 
Q 956 0 581 494 
Q 206 988 206 1678 
Q 206 2153 378 2554 
Q 550 2956 876 3175 
Q 1203 3394 1644 3394 
Q 2231 3394 2613 2919 
L 2613 3319 
L 3131 3319 
L 3131 450 
Q 3131 -325 2973 -648 
Q 2816 -972 2473 -1159 
Q 2131 -1347 1631 -1347 
Q 1038 -1347 672 -1080 
Q 306 -813 319 -275 
z
M 784 1719 
Q 784 1066 1043 766 
Q 1303 466 1694 466 
Q 2081 466 2343 764 
Q 2606 1063 2606 1700 
Q 2606 2309 2336 2618 
Q 2066 2928 1684 2928 
Q 1309 2928 1046 2623 
Q 784 2319 784 1719 
z
" transform="scale(0.015625)"/>
       <path id="ArialMT-69" d="M 425 3934 
L 425 4581 
L 988 4581 
L 988 3934 
L 425 3934 
z
M 425 0 
L 425 3319 
L 988 3319 
L 988 0 
L 425 0 
z
" transform="scale(0.015625)"/>
       <path id="ArialMT-6b" d="M 425 0 
L 425 4581 
L 988 4581 
L 988 1969 
L 2319 3319 
L 3047 3319 
L 1778 2088 
L 3175 0 
L 2481 0 
L 1384 1697 
L 988 1316 
L 988 0 
L 425 0 
z
" transform="scale(0.015625)"/>
       <path id="ArialMT-64" d="M 2575 0 
L 2575 419 
Q 2259 -75 1647 -75 
Q 1250 -75 917 144 
Q 584 363 401 755 
Q 219 1147 219 1656 
Q 219 2153 384 2558 
Q 550 2963 881 3178 
Q 1213 3394 1622 3394 
Q 1922 3394 2156 3267 
Q 2391 3141 2538 2938 
L 2538 4581 
L 3097 4581 
L 3097 0 
L 2575 0 
z
M 797 1656 
Q 797 1019 1065 703 
Q 1334 388 1700 388 
Q 2069 388 2326 689 
Q 2584 991 2584 1609 
Q 2584 2291 2321 2609 
Q 2059 2928 1675 2928 
Q 1300 2928 1048 2622 
Q 797 2316 797 1656 
z
" transform="scale(0.015625)"/>
      </defs>
      <use xlink:href="#ArialMT-6c"/>
      <use xlink:href="#ArialMT-6f" x="22.216797"/>
      <use xlink:href="#ArialMT-67" x="77.832031"/>
      <use xlink:href="#ArialMT-20" x="133.447266"/>
      <use xlink:href="#ArialMT-6c" x="161.230469"/>
      <use xlink:href="#ArialMT-69" x="183.447266"/>
      <use xlink:href="#ArialMT-6b" x="205.664062"/>
      <use xlink:href="#ArialMT-65" x="255.664062"/>
      <use xlink:href="#ArialMT-6c" x="311.279297"/>
      <use xlink:href="#ArialMT-69" x="333.496094"/>
      <use xlink:href="#ArialMT-68" x="355.712891"/>
      <use xlink:href="#ArialMT-6f" x="411.328125"/>
      <use xlink:href="#ArialMT-6f" x="466.943359"/>
      <use xlink:href="#ArialMT-64" x="522.558594"/>
     </g>
    </g>
   </g>
   <g id="line2d_27">
    <path d="M 92.008187 487.553505 
L 94.961964 357.263488 
L 97.915742 318.495676 
L 100.869519 305.381473 
L 103.823297 297.660786 
L 106.777074 292.200315 
L 109.730852 287.902133 
L 112.684629 284.223886 
L 115.638407 281.122806 
L 118.592184 278.461715 
L 121.545962 276.053745 
L 124.499739 273.846401 
L 130.407294 269.762555 
L 133.361072 265.363156 
L 136.31485 261.431043 
L 139.268627 258.083809 
L 142.222405 254.91807 
L 148.12996 249.242817 
L 156.991292 242.492387 
L 162.898847 238.929423 
L 168.806402 235.756472 
L 171.76018 234.447501 
L 174.713957 233.016921 
L 180.621512 230.501176 
L 189.482845 227.250271 
L 195.3904 225.519921 
L 198.344177 224.554796 
L 207.20551 222.055661 
L 221.974398 218.775221 
L 224.928175 218.248455 
L 227.881953 217.513172 
L 239.697063 215.410433 
L 248.558395 214.104086 
L 251.512173 213.570914 
L 272.188616 210.772079 
L 295.818836 208.216363 
L 331.264166 205.269423 
L 343.079276 204.479166 
L 348.986831 204.113047 
L 366.709496 203.183733 
L 369.663274 203.082622 
L 372.617051 202.843374 
L 378.524606 202.676681 
L 381.478384 202.483025 
L 384.432161 202.460917 
L 390.339716 202.16602 
L 428.738824 200.879767 
L 458.276599 200.351292 
L 464.184155 200.193937 
L 467.137932 200.199217 
L 470.09171 200.081419 
L 475.999265 200.137339 
L 484.860597 200.022767 
L 493.72193 199.942885 
L 529.16726 199.671265 
L 538.028593 199.514113 
L 549.843703 199.386761 
L 555.751258 199.32473 
L 558.705035 199.216401 
L 564.61259 199.254302 
L 591.196588 198.928254 
L 594.150366 198.939867 
L 597.104143 198.824512 
L 605.965476 198.826899 
L 608.919253 198.738569 
L 614.826808 198.693998 
L 638.457028 198.500569 
L 653.225916 198.490404 
L 656.179693 198.39235 
L 659.133471 198.460457 
L 665.041026 198.384487 
L 673.902359 198.357421 
L 679.809914 198.313617 
L 679.809914 198.313617 
" clip-path="url(#p26fc4c4550)" style="fill: none; stroke: #1f77b4; stroke-width: 1.5; stroke-linecap: round"/>
   </g>
   <g id="LineCollection_1">
    <path d="M 92.008187 501.023843 
L 92.008187 470.064081 
" clip-path="url(#p26fc4c4550)" style="fill: none; stroke: #1f77b4; stroke-opacity: 0.8; stroke-width: 1.5"/>
    <path d="M 151.083737 251.001962 
L 151.083737 242.903419 
" clip-path="url(#p26fc4c4550)" style="fill: none; stroke: #1f77b4; stroke-opacity: 0.8; stroke-width: 1.5"/>
    <path d="M 210.159288 224.221297 
L 210.159288 218.576873 
" clip-path="url(#p26fc4c4550)" style="fill: none; stroke: #1f77b4; stroke-opacity: 0.8; stroke-width: 1.5"/>
    <path d="M 269.234838 213.410445 
L 269.234838 208.887975 
" clip-path="url(#p26fc4c4550)" style="fill: none; stroke: #1f77b4; stroke-opacity: 0.8; stroke-width: 1.5"/>
    <path d="M 328.310388 207.246444 
L 328.310388 203.701853 
" clip-path="url(#p26fc4c4550)" style="fill: none; stroke: #1f77b4; stroke-opacity: 0.8; stroke-width: 1.5"/>
    <path d="M 387.385939 203.800031 
L 387.385939 200.726205 
" clip-path="url(#p26fc4c4550)" style="fill: none; stroke: #1f77b4; stroke-opacity: 0.8; stroke-width: 1.5"/>
    <path d="M 446.461489 201.890293 
L 446.461489 199.131145 
" clip-path="url(#p26fc4c4550)" style="fill: none; stroke: #1f77b4; stroke-opacity: 0.8; stroke-width: 1.5"/>
    <path d="M 505.53704 201.113849 
L 505.53704 198.676889 
" clip-path="url(#p26fc4c4550)" style="fill: none; stroke: #1f77b4; stroke-opacity: 0.8; stroke-width: 1.5"/>
    <path d="M 564.61259 200.569264 
L 564.61259 197.939341 
" clip-path="url(#p26fc4c4550)" style="fill: none; stroke: #1f77b4; stroke-opacity: 0.8; stroke-width: 1.5"/>
    <path d="M 623.688141 200.14728 
L 623.688141 197.069549 
" clip-path="url(#p26fc4c4550)" style="fill: none; stroke: #1f77b4; stroke-opacity: 0.8; stroke-width: 1.5"/>
   </g>
   <g id="line2d_28">
    <defs>
     <path id="m435b4d021f" d="M 2 0 
L -2 -0 
" style="stroke: #1f77b4; stroke-opacity: 0.8"/>
    </defs>
    <g clip-path="url(#p26fc4c4550)">
     <use xlink:href="#m435b4d021f" x="92.008187" y="501.023843" style="fill: #1f77b4; fill-opacity: 0.8; stroke: #1f77b4; stroke-opacity: 0.8"/>
     <use xlink:href="#m435b4d021f" x="151.083737" y="251.001962" style="fill: #1f77b4; fill-opacity: 0.8; stroke: #1f77b4; stroke-opacity: 0.8"/>
     <use xlink:href="#m435b4d021f" x="210.159288" y="224.221297" style="fill: #1f77b4; fill-opacity: 0.8; stroke: #1f77b4; stroke-opacity: 0.8"/>
     <use xlink:href="#m435b4d021f" x="269.234838" y="213.410445" style="fill: #1f77b4; fill-opacity: 0.8; stroke: #1f77b4; stroke-opacity: 0.8"/>
     <use xlink:href="#m435b4d021f" x="328.310388" y="207.246444" style="fill: #1f77b4; fill-opacity: 0.8; stroke: #1f77b4; stroke-opacity: 0.8"/>
     <use xlink:href="#m435b4d021f" x="387.385939" y="203.800031" style="fill: #1f77b4; fill-opacity: 0.8; stroke: #1f77b4; stroke-opacity: 0.8"/>
     <use xlink:href="#m435b4d021f" x="446.461489" y="201.890293" style="fill: #1f77b4; fill-opacity: 0.8; stroke: #1f77b4; stroke-opacity: 0.8"/>
     <use xlink:href="#m435b4d021f" x="505.53704" y="201.113849" style="fill: #1f77b4; fill-opacity: 0.8; stroke: #1f77b4; stroke-opacity: 0.8"/>
     <use xlink:href="#m435b4d021f" x="564.61259" y="200.569264" style="fill: #1f77b4; fill-opacity: 0.8; stroke: #1f77b4; stroke-opacity: 0.8"/>
     <use xlink:href="#m435b4d021f" x="623.688141" y="200.14728" style="fill: #1f77b4; fill-opacity: 0.8; stroke: #1f77b4; stroke-opacity: 0.8"/>
    </g>
   </g>
   <g id="line2d_29">
    <g clip-path="url(#p26fc4c4550)">
     <use xlink:href="#m435b4d021f" x="92.008187" y="470.064081" style="fill: #1f77b4; fill-opacity: 0.8; stroke: #1f77b4; stroke-opacity: 0.8"/>
     <use xlink:href="#m435b4d021f" x="151.083737" y="242.903419" style="fill: #1f77b4; fill-opacity: 0.8; stroke: #1f77b4; stroke-opacity: 0.8"/>
     <use xlink:href="#m435b4d021f" x="210.159288" y="218.576873" style="fill: #1f77b4; fill-opacity: 0.8; stroke: #1f77b4; stroke-opacity: 0.8"/>
     <use xlink:href="#m435b4d021f" x="269.234838" y="208.887975" style="fill: #1f77b4; fill-opacity: 0.8; stroke: #1f77b4; stroke-opacity: 0.8"/>
     <use xlink:href="#m435b4d021f" x="328.310388" y="203.701853" style="fill: #1f77b4; fill-opacity: 0.8; stroke: #1f77b4; stroke-opacity: 0.8"/>
     <use xlink:href="#m435b4d021f" x="387.385939" y="200.726205" style="fill: #1f77b4; fill-opacity: 0.8; stroke: #1f77b4; stroke-opacity: 0.8"/>
     <use xlink:href="#m435b4d021f" x="446.461489" y="199.131145" style="fill: #1f77b4; fill-opacity: 0.8; stroke: #1f77b4; stroke-opacity: 0.8"/>
     <use xlink:href="#m435b4d021f" x="505.53704" y="198.676889" style="fill: #1f77b4; fill-opacity: 0.8; stroke: #1f77b4; stroke-opacity: 0.8"/>
     <use xlink:href="#m435b4d021f" x="564.61259" y="197.939341" style="fill: #1f77b4; fill-opacity: 0.8; stroke: #1f77b4; stroke-opacity: 0.8"/>
     <use xlink:href="#m435b4d021f" x="623.688141" y="197.069549" style="fill: #1f77b4; fill-opacity: 0.8; stroke: #1f77b4; stroke-opacity: 0.8"/>
    </g>
   </g>
   <g id="line2d_30">
    <path d="M 92.008187 494.937501 
L 94.961964 353.575645 
L 97.915742 316.049313 
L 100.869519 302.243955 
L 103.823297 293.572482 
L 106.777074 287.411871 
L 109.730852 282.602512 
L 112.684629 278.514135 
L 115.638407 274.762929 
L 118.592184 271.449622 
L 121.545962 265.610769 
L 124.499739 258.800373 
L 127.453517 252.95489 
L 130.407294 247.891482 
L 133.361072 243.593479 
L 136.31485 239.933613 
L 139.268627 236.849226 
L 142.222405 234.16208 
L 145.176182 231.848626 
L 148.12996 229.8101 
L 151.083737 228.18625 
L 156.991292 225.403293 
L 162.898847 223.336581 
L 168.806402 221.562945 
L 180.621512 218.695474 
L 192.436622 216.39784 
L 210.159288 213.72079 
L 224.928175 212.158596 
L 242.65084 210.650687 
L 269.234838 209.003991 
L 307.633946 207.374786 
L 310.587723 207.360384 
L 316.495278 207.086052 
L 334.217944 206.450758 
L 346.033054 206.000976 
L 357.848164 205.512034 
L 369.663274 204.963912 
L 434.646379 202.521555 
L 511.444595 200.606592 
L 538.028593 200.025368 
L 543.936148 199.91918 
L 620.734363 198.721538 
L 629.595696 198.610717 
L 667.994804 198.152003 
L 676.856136 198.096872 
L 679.809914 198.056273 
L 679.809914 198.056273 
" clip-path="url(#p26fc4c4550)" style="fill: none; stroke: #ff7f0e; stroke-width: 1.5; stroke-linecap: round"/>
   </g>
   <g id="LineCollection_2">
    <path d="M 92.008187 523.983381 
L 92.008187 435.23798 
" clip-path="url(#p26fc4c4550)" style="fill: none; stroke: #ff7f0e; stroke-opacity: 0.8; stroke-width: 1.5"/>
    <path d="M 151.083737 233.78319 
L 151.083737 222.589309 
" clip-path="url(#p26fc4c4550)" style="fill: none; stroke: #ff7f0e; stroke-opacity: 0.8; stroke-width: 1.5"/>
    <path d="M 210.159288 216.547139 
L 210.159288 210.894441 
" clip-path="url(#p26fc4c4550)" style="fill: none; stroke: #ff7f0e; stroke-opacity: 0.8; stroke-width: 1.5"/>
    <path d="M 269.234838 211.160488 
L 269.234838 206.847495 
" clip-path="url(#p26fc4c4550)" style="fill: none; stroke: #ff7f0e; stroke-opacity: 0.8; stroke-width: 1.5"/>
    <path d="M 328.310388 208.687431 
L 328.310388 204.67132 
" clip-path="url(#p26fc4c4550)" style="fill: none; stroke: #ff7f0e; stroke-opacity: 0.8; stroke-width: 1.5"/>
    <path d="M 387.385939 206.022518 
L 387.385939 202.376909 
" clip-path="url(#p26fc4c4550)" style="fill: none; stroke: #ff7f0e; stroke-opacity: 0.8; stroke-width: 1.5"/>
    <path d="M 446.461489 203.659955 
L 446.461489 200.739899 
" clip-path="url(#p26fc4c4550)" style="fill: none; stroke: #ff7f0e; stroke-opacity: 0.8; stroke-width: 1.5"/>
    <path d="M 505.53704 201.963544 
L 505.53704 199.528075 
" clip-path="url(#p26fc4c4550)" style="fill: none; stroke: #ff7f0e; stroke-opacity: 0.8; stroke-width: 1.5"/>
    <path d="M 564.61259 200.577363 
L 564.61259 198.532186 
" clip-path="url(#p26fc4c4550)" style="fill: none; stroke: #ff7f0e; stroke-opacity: 0.8; stroke-width: 1.5"/>
    <path d="M 623.688141 199.686032 
L 623.688141 197.746339 
" clip-path="url(#p26fc4c4550)" style="fill: none; stroke: #ff7f0e; stroke-opacity: 0.8; stroke-width: 1.5"/>
   </g>
   <g id="line2d_31">
    <defs>
     <path id="m2df2f85ed8" d="M 2 0 
L -2 -0 
" style="stroke: #ff7f0e; stroke-opacity: 0.8"/>
    </defs>
    <g clip-path="url(#p26fc4c4550)">
     <use xlink:href="#m2df2f85ed8" x="92.008187" y="523.983381" style="fill: #ff7f0e; fill-opacity: 0.8; stroke: #ff7f0e; stroke-opacity: 0.8"/>
     <use xlink:href="#m2df2f85ed8" x="151.083737" y="233.78319" style="fill: #ff7f0e; fill-opacity: 0.8; stroke: #ff7f0e; stroke-opacity: 0.8"/>
     <use xlink:href="#m2df2f85ed8" x="210.159288" y="216.547139" style="fill: #ff7f0e; fill-opacity: 0.8; stroke: #ff7f0e; stroke-opacity: 0.8"/>
     <use xlink:href="#m2df2f85ed8" x="269.234838" y="211.160488" style="fill: #ff7f0e; fill-opacity: 0.8; stroke: #ff7f0e; stroke-opacity: 0.8"/>
     <use xlink:href="#m2df2f85ed8" x="328.310388" y="208.687431" style="fill: #ff7f0e; fill-opacity: 0.8; stroke: #ff7f0e; stroke-opacity: 0.8"/>
     <use xlink:href="#m2df2f85ed8" x="387.385939" y="206.022518" style="fill: #ff7f0e; fill-opacity: 0.8; stroke: #ff7f0e; stroke-opacity: 0.8"/>
     <use xlink:href="#m2df2f85ed8" x="446.461489" y="203.659955" style="fill: #ff7f0e; fill-opacity: 0.8; stroke: #ff7f0e; stroke-opacity: 0.8"/>
     <use xlink:href="#m2df2f85ed8" x="505.53704" y="201.963544" style="fill: #ff7f0e; fill-opacity: 0.8; stroke: #ff7f0e; stroke-opacity: 0.8"/>
     <use xlink:href="#m2df2f85ed8" x="564.61259" y="200.577363" style="fill: #ff7f0e; fill-opacity: 0.8; stroke: #ff7f0e; stroke-opacity: 0.8"/>
     <use xlink:href="#m2df2f85ed8" x="623.688141" y="199.686032" style="fill: #ff7f0e; fill-opacity: 0.8; stroke: #ff7f0e; stroke-opacity: 0.8"/>
    </g>
   </g>
   <g id="line2d_32">
    <g clip-path="url(#p26fc4c4550)">
     <use xlink:href="#m2df2f85ed8" x="92.008187" y="435.23798" style="fill: #ff7f0e; fill-opacity: 0.8; stroke: #ff7f0e; stroke-opacity: 0.8"/>
     <use xlink:href="#m2df2f85ed8" x="151.083737" y="222.589309" style="fill: #ff7f0e; fill-opacity: 0.8; stroke: #ff7f0e; stroke-opacity: 0.8"/>
     <use xlink:href="#m2df2f85ed8" x="210.159288" y="210.894441" style="fill: #ff7f0e; fill-opacity: 0.8; stroke: #ff7f0e; stroke-opacity: 0.8"/>
     <use xlink:href="#m2df2f85ed8" x="269.234838" y="206.847495" style="fill: #ff7f0e; fill-opacity: 0.8; stroke: #ff7f0e; stroke-opacity: 0.8"/>
     <use xlink:href="#m2df2f85ed8" x="328.310388" y="204.67132" style="fill: #ff7f0e; fill-opacity: 0.8; stroke: #ff7f0e; stroke-opacity: 0.8"/>
     <use xlink:href="#m2df2f85ed8" x="387.385939" y="202.376909" style="fill: #ff7f0e; fill-opacity: 0.8; stroke: #ff7f0e; stroke-opacity: 0.8"/>
     <use xlink:href="#m2df2f85ed8" x="446.461489" y="200.739899" style="fill: #ff7f0e; fill-opacity: 0.8; stroke: #ff7f0e; stroke-opacity: 0.8"/>
     <use xlink:href="#m2df2f85ed8" x="505.53704" y="199.528075" style="fill: #ff7f0e; fill-opacity: 0.8; stroke: #ff7f0e; stroke-opacity: 0.8"/>
     <use xlink:href="#m2df2f85ed8" x="564.61259" y="198.532186" style="fill: #ff7f0e; fill-opacity: 0.8; stroke: #ff7f0e; stroke-opacity: 0.8"/>
     <use xlink:href="#m2df2f85ed8" x="623.688141" y="197.746339" style="fill: #ff7f0e; fill-opacity: 0.8; stroke: #ff7f0e; stroke-opacity: 0.8"/>
    </g>
   </g>
   <g id="line2d_33">
    <path d="M 92.008187 500.634891 
L 94.961964 463.488641 
L 97.915742 389.486287 
L 100.869519 331.202451 
L 103.823297 317.738276 
L 106.777074 311.701517 
L 109.730852 307.394922 
L 112.684629 303.752737 
L 115.638407 300.657731 
L 118.592184 297.866411 
L 124.499739 292.87848 
L 130.407294 288.54835 
L 136.31485 284.440973 
L 142.222405 280.757349 
L 148.12996 277.50764 
L 156.991292 273.161496 
L 162.898847 270.505247 
L 165.852625 267.833032 
L 168.806402 264.904856 
L 174.713957 259.542612 
L 177.667735 257.010554 
L 183.57529 252.248493 
L 192.436622 246.251897 
L 198.344177 242.77213 
L 201.297955 241.061567 
L 210.159288 236.813924 
L 213.113065 235.470944 
L 219.02062 233.134134 
L 221.974398 232.046808 
L 230.83573 229.269531 
L 239.697063 226.839592 
L 248.558395 224.818406 
L 254.46595 223.550816 
L 257.419728 222.924562 
L 260.373505 222.47274 
L 266.281061 221.377637 
L 284.003726 218.692461 
L 292.865058 217.585735 
L 310.587723 215.739903 
L 313.541501 215.543285 
L 316.495278 215.20089 
L 337.171721 213.660347 
L 340.125499 213.348282 
L 348.986831 212.837526 
L 351.940609 212.615385 
L 354.894386 212.558474 
L 360.801941 212.112271 
L 366.709496 211.809417 
L 372.617051 211.484146 
L 378.524606 211.158782 
L 384.432161 210.880917 
L 387.385939 210.621699 
L 408.062382 209.73973 
L 428.738824 208.844173 
L 437.600157 208.603184 
L 455.322822 207.986709 
L 508.490817 206.496275 
L 514.398372 206.378845 
L 540.98237 205.850823 
L 543.936148 205.816912 
L 546.889925 205.668932 
L 549.843703 205.681051 
L 552.79748 205.572978 
L 555.751258 205.609193 
L 558.705035 205.458601 
L 570.520145 205.337809 
L 579.381478 205.190743 
L 588.24281 205.070049 
L 591.196588 204.981228 
L 594.150366 205.023419 
L 605.965476 204.809194 
L 623.688141 204.636737 
L 632.549473 204.509563 
L 644.364583 204.34576 
L 656.179693 204.2005 
L 679.809914 203.939633 
L 679.809914 203.939633 
" clip-path="url(#p26fc4c4550)" style="fill: none; stroke: #2ca02c; stroke-width: 1.5; stroke-linecap: round"/>
   </g>
   <g id="LineCollection_3">
    <path d="M 92.008187 506.384961 
L 92.008187 494.262717 
" clip-path="url(#p26fc4c4550)" style="fill: none; stroke: #2ca02c; stroke-opacity: 0.8; stroke-width: 1.5"/>
    <path d="M 151.083737 278.615334 
L 151.083737 273.358578 
" clip-path="url(#p26fc4c4550)" style="fill: none; stroke: #2ca02c; stroke-opacity: 0.8; stroke-width: 1.5"/>
    <path d="M 210.159288 240.676546 
L 210.159288 232.951301 
" clip-path="url(#p26fc4c4550)" style="fill: none; stroke: #2ca02c; stroke-opacity: 0.8; stroke-width: 1.5"/>
    <path d="M 269.234838 223.713081 
L 269.234838 218.112659 
" clip-path="url(#p26fc4c4550)" style="fill: none; stroke: #2ca02c; stroke-opacity: 0.8; stroke-width: 1.5"/>
    <path d="M 328.310388 217.044919 
L 328.310388 211.508637 
" clip-path="url(#p26fc4c4550)" style="fill: none; stroke: #2ca02c; stroke-opacity: 0.8; stroke-width: 1.5"/>
    <path d="M 387.385939 213.133983 
L 387.385939 208.109416 
" clip-path="url(#p26fc4c4550)" style="fill: none; stroke: #2ca02c; stroke-opacity: 0.8; stroke-width: 1.5"/>
    <path d="M 446.461489 210.566181 
L 446.461489 205.946905 
" clip-path="url(#p26fc4c4550)" style="fill: none; stroke: #2ca02c; stroke-opacity: 0.8; stroke-width: 1.5"/>
    <path d="M 505.53704 208.798748 
L 505.53704 204.38826 
" clip-path="url(#p26fc4c4550)" style="fill: none; stroke: #2ca02c; stroke-opacity: 0.8; stroke-width: 1.5"/>
    <path d="M 564.61259 207.390977 
L 564.61259 203.442914 
" clip-path="url(#p26fc4c4550)" style="fill: none; stroke: #2ca02c; stroke-opacity: 0.8; stroke-width: 1.5"/>
    <path d="M 623.688141 206.404481 
L 623.688141 202.868993 
" clip-path="url(#p26fc4c4550)" style="fill: none; stroke: #2ca02c; stroke-opacity: 0.8; stroke-width: 1.5"/>
   </g>
   <g id="line2d_34">
    <defs>
     <path id="mf299228e73" d="M 2 0 
L -2 -0 
" style="stroke: #2ca02c; stroke-opacity: 0.8"/>
    </defs>
    <g clip-path="url(#p26fc4c4550)">
     <use xlink:href="#mf299228e73" x="92.008187" y="506.384961" style="fill: #2ca02c; fill-opacity: 0.8; stroke: #2ca02c; stroke-opacity: 0.8"/>
     <use xlink:href="#mf299228e73" x="151.083737" y="278.615334" style="fill: #2ca02c; fill-opacity: 0.8; stroke: #2ca02c; stroke-opacity: 0.8"/>
     <use xlink:href="#mf299228e73" x="210.159288" y="240.676546" style="fill: #2ca02c; fill-opacity: 0.8; stroke: #2ca02c; stroke-opacity: 0.8"/>
     <use xlink:href="#mf299228e73" x="269.234838" y="223.713081" style="fill: #2ca02c; fill-opacity: 0.8; stroke: #2ca02c; stroke-opacity: 0.8"/>
     <use xlink:href="#mf299228e73" x="328.310388" y="217.044919" style="fill: #2ca02c; fill-opacity: 0.8; stroke: #2ca02c; stroke-opacity: 0.8"/>
     <use xlink:href="#mf299228e73" x="387.385939" y="213.133983" style="fill: #2ca02c; fill-opacity: 0.8; stroke: #2ca02c; stroke-opacity: 0.8"/>
     <use xlink:href="#mf299228e73" x="446.461489" y="210.566181" style="fill: #2ca02c; fill-opacity: 0.8; stroke: #2ca02c; stroke-opacity: 0.8"/>
     <use xlink:href="#mf299228e73" x="505.53704" y="208.798748" style="fill: #2ca02c; fill-opacity: 0.8; stroke: #2ca02c; stroke-opacity: 0.8"/>
     <use xlink:href="#mf299228e73" x="564.61259" y="207.390977" style="fill: #2ca02c; fill-opacity: 0.8; stroke: #2ca02c; stroke-opacity: 0.8"/>
     <use xlink:href="#mf299228e73" x="623.688141" y="206.404481" style="fill: #2ca02c; fill-opacity: 0.8; stroke: #2ca02c; stroke-opacity: 0.8"/>
    </g>
   </g>
   <g id="line2d_35">
    <g clip-path="url(#p26fc4c4550)">
     <use xlink:href="#mf299228e73" x="92.008187" y="494.262717" style="fill: #2ca02c; fill-opacity: 0.8; stroke: #2ca02c; stroke-opacity: 0.8"/>
     <use xlink:href="#mf299228e73" x="151.083737" y="273.358578" style="fill: #2ca02c; fill-opacity: 0.8; stroke: #2ca02c; stroke-opacity: 0.8"/>
     <use xlink:href="#mf299228e73" x="210.159288" y="232.951301" style="fill: #2ca02c; fill-opacity: 0.8; stroke: #2ca02c; stroke-opacity: 0.8"/>
     <use xlink:href="#mf299228e73" x="269.234838" y="218.112659" style="fill: #2ca02c; fill-opacity: 0.8; stroke: #2ca02c; stroke-opacity: 0.8"/>
     <use xlink:href="#mf299228e73" x="328.310388" y="211.508637" style="fill: #2ca02c; fill-opacity: 0.8; stroke: #2ca02c; stroke-opacity: 0.8"/>
     <use xlink:href="#mf299228e73" x="387.385939" y="208.109416" style="fill: #2ca02c; fill-opacity: 0.8; stroke: #2ca02c; stroke-opacity: 0.8"/>
     <use xlink:href="#mf299228e73" x="446.461489" y="205.946905" style="fill: #2ca02c; fill-opacity: 0.8; stroke: #2ca02c; stroke-opacity: 0.8"/>
     <use xlink:href="#mf299228e73" x="505.53704" y="204.38826" style="fill: #2ca02c; fill-opacity: 0.8; stroke: #2ca02c; stroke-opacity: 0.8"/>
     <use xlink:href="#mf299228e73" x="564.61259" y="203.442914" style="fill: #2ca02c; fill-opacity: 0.8; stroke: #2ca02c; stroke-opacity: 0.8"/>
     <use xlink:href="#mf299228e73" x="623.688141" y="202.868993" style="fill: #2ca02c; fill-opacity: 0.8; stroke: #2ca02c; stroke-opacity: 0.8"/>
    </g>
   </g>
   <g id="line2d_36">
    <path d="M 92.008187 479.363559 
L 94.961964 435.059599 
L 97.915742 366.531987 
L 100.869519 314.729358 
L 103.823297 298.792547 
L 106.777074 291.306283 
L 109.730852 285.574791 
L 112.684629 280.511292 
L 115.638407 275.894897 
L 118.592184 271.784775 
L 121.545962 264.95204 
L 124.499739 257.50726 
L 127.453517 251.659475 
L 130.407294 247.029145 
L 133.361072 243.564096 
L 136.31485 240.890495 
L 139.268627 238.764674 
L 142.222405 237.018156 
L 145.176182 235.460398 
L 154.037515 231.417994 
L 162.898847 227.751078 
L 168.806402 225.523602 
L 177.667735 222.562616 
L 183.57529 220.740303 
L 189.482845 219.162314 
L 195.3904 217.667296 
L 204.251733 215.804166 
L 213.113065 214.204114 
L 230.83573 211.78483 
L 233.789508 211.524153 
L 236.743285 211.141874 
L 242.65084 210.593346 
L 254.46595 209.605251 
L 286.957503 207.441328 
L 304.680168 206.526939 
L 348.986831 204.844463 
L 402.154827 203.608092 
L 408.062382 203.529796 
L 473.045487 202.50671 
L 511.444595 202.123252 
L 517.35215 202.071513 
L 538.028593 201.827873 
L 594.150366 201.316794 
L 600.057921 201.288193 
L 620.734363 201.107514 
L 679.809914 200.697182 
L 679.809914 200.697182 
" clip-path="url(#p26fc4c4550)" style="fill: none; stroke: #d62728; stroke-width: 1.5; stroke-linecap: round"/>
   </g>
   <g id="LineCollection_4">
    <path d="M 92.008187 504.154195 
L 92.008187 435.753421 
" clip-path="url(#p26fc4c4550)" style="fill: none; stroke: #d62728; stroke-opacity: 0.8; stroke-width: 1.5"/>
    <path d="M 151.083737 235.864284 
L 151.083737 229.563822 
" clip-path="url(#p26fc4c4550)" style="fill: none; stroke: #d62728; stroke-opacity: 0.8; stroke-width: 1.5"/>
    <path d="M 210.159288 217.195854 
L 210.159288 212.288419 
" clip-path="url(#p26fc4c4550)" style="fill: none; stroke: #d62728; stroke-opacity: 0.8; stroke-width: 1.5"/>
    <path d="M 269.234838 210.46136 
L 269.234838 206.616826 
" clip-path="url(#p26fc4c4550)" style="fill: none; stroke: #d62728; stroke-opacity: 0.8; stroke-width: 1.5"/>
    <path d="M 328.310388 207.065595 
L 328.310388 204.076306 
" clip-path="url(#p26fc4c4550)" style="fill: none; stroke: #d62728; stroke-opacity: 0.8; stroke-width: 1.5"/>
    <path d="M 387.385939 205.319025 
L 387.385939 202.535116 
" clip-path="url(#p26fc4c4550)" style="fill: none; stroke: #d62728; stroke-opacity: 0.8; stroke-width: 1.5"/>
    <path d="M 446.461489 204.334809 
L 446.461489 201.414136 
" clip-path="url(#p26fc4c4550)" style="fill: none; stroke: #d62728; stroke-opacity: 0.8; stroke-width: 1.5"/>
    <path d="M 505.53704 203.646268 
L 505.53704 200.730193 
" clip-path="url(#p26fc4c4550)" style="fill: none; stroke: #d62728; stroke-opacity: 0.8; stroke-width: 1.5"/>
    <path d="M 564.61259 203.10324 
L 564.61259 200.043551 
" clip-path="url(#p26fc4c4550)" style="fill: none; stroke: #d62728; stroke-opacity: 0.8; stroke-width: 1.5"/>
    <path d="M 623.688141 202.728147 
L 623.688141 199.441421 
" clip-path="url(#p26fc4c4550)" style="fill: none; stroke: #d62728; stroke-opacity: 0.8; stroke-width: 1.5"/>
   </g>
   <g id="line2d_37">
    <defs>
     <path id="m8d786029a3" d="M 2 0 
L -2 -0 
" style="stroke: #d62728; stroke-opacity: 0.8"/>
    </defs>
    <g clip-path="url(#p26fc4c4550)">
     <use xlink:href="#m8d786029a3" x="92.008187" y="504.154195" style="fill: #d62728; fill-opacity: 0.8; stroke: #d62728; stroke-opacity: 0.8"/>
     <use xlink:href="#m8d786029a3" x="151.083737" y="235.864284" style="fill: #d62728; fill-opacity: 0.8; stroke: #d62728; stroke-opacity: 0.8"/>
     <use xlink:href="#m8d786029a3" x="210.159288" y="217.195854" style="fill: #d62728; fill-opacity: 0.8; stroke: #d62728; stroke-opacity: 0.8"/>
     <use xlink:href="#m8d786029a3" x="269.234838" y="210.46136" style="fill: #d62728; fill-opacity: 0.8; stroke: #d62728; stroke-opacity: 0.8"/>
     <use xlink:href="#m8d786029a3" x="328.310388" y="207.065595" style="fill: #d62728; fill-opacity: 0.8; stroke: #d62728; stroke-opacity: 0.8"/>
     <use xlink:href="#m8d786029a3" x="387.385939" y="205.319025" style="fill: #d62728; fill-opacity: 0.8; stroke: #d62728; stroke-opacity: 0.8"/>
     <use xlink:href="#m8d786029a3" x="446.461489" y="204.334809" style="fill: #d62728; fill-opacity: 0.8; stroke: #d62728; stroke-opacity: 0.8"/>
     <use xlink:href="#m8d786029a3" x="505.53704" y="203.646268" style="fill: #d62728; fill-opacity: 0.8; stroke: #d62728; stroke-opacity: 0.8"/>
     <use xlink:href="#m8d786029a3" x="564.61259" y="203.10324" style="fill: #d62728; fill-opacity: 0.8; stroke: #d62728; stroke-opacity: 0.8"/>
     <use xlink:href="#m8d786029a3" x="623.688141" y="202.728147" style="fill: #d62728; fill-opacity: 0.8; stroke: #d62728; stroke-opacity: 0.8"/>
    </g>
   </g>
   <g id="line2d_38">
    <g clip-path="url(#p26fc4c4550)">
     <use xlink:href="#m8d786029a3" x="92.008187" y="435.753421" style="fill: #d62728; fill-opacity: 0.8; stroke: #d62728; stroke-opacity: 0.8"/>
     <use xlink:href="#m8d786029a3" x="151.083737" y="229.563822" style="fill: #d62728; fill-opacity: 0.8; stroke: #d62728; stroke-opacity: 0.8"/>
     <use xlink:href="#m8d786029a3" x="210.159288" y="212.288419" style="fill: #d62728; fill-opacity: 0.8; stroke: #d62728; stroke-opacity: 0.8"/>
     <use xlink:href="#m8d786029a3" x="269.234838" y="206.616826" style="fill: #d62728; fill-opacity: 0.8; stroke: #d62728; stroke-opacity: 0.8"/>
     <use xlink:href="#m8d786029a3" x="328.310388" y="204.076306" style="fill: #d62728; fill-opacity: 0.8; stroke: #d62728; stroke-opacity: 0.8"/>
     <use xlink:href="#m8d786029a3" x="387.385939" y="202.535116" style="fill: #d62728; fill-opacity: 0.8; stroke: #d62728; stroke-opacity: 0.8"/>
     <use xlink:href="#m8d786029a3" x="446.461489" y="201.414136" style="fill: #d62728; fill-opacity: 0.8; stroke: #d62728; stroke-opacity: 0.8"/>
     <use xlink:href="#m8d786029a3" x="505.53704" y="200.730193" style="fill: #d62728; fill-opacity: 0.8; stroke: #d62728; stroke-opacity: 0.8"/>
     <use xlink:href="#m8d786029a3" x="564.61259" y="200.043551" style="fill: #d62728; fill-opacity: 0.8; stroke: #d62728; stroke-opacity: 0.8"/>
     <use xlink:href="#m8d786029a3" x="623.688141" y="199.441421" style="fill: #d62728; fill-opacity: 0.8; stroke: #d62728; stroke-opacity: 0.8"/>
    </g>
   </g>
   <g id="line2d_39">
    <defs>
     <path id="m69e6eb9c67" d="M 0 2.5 
C 0.663008 2.5 1.29895 2.236584 1.767767 1.767767 
C 2.236584 1.29895 2.5 0.663008 2.5 0 
C 2.5 -0.663008 2.236584 -1.29895 1.767767 -1.767767 
C 1.29895 -2.236584 0.663008 -2.5 0 -2.5 
C -0.663008 -2.5 -1.29895 -2.236584 -1.767767 -1.767767 
C -2.236584 -1.29895 -2.5 -0.663008 -2.5 0 
C -2.5 0.663008 -2.236584 1.29895 -1.767767 1.767767 
C -1.29895 2.236584 -0.663008 2.5 0 2.5 
z
" style="stroke: #1f77b4; stroke-opacity: 0.8"/>
    </defs>
    <g clip-path="url(#p26fc4c4550)">
     <use xlink:href="#m69e6eb9c67" x="92.008187" y="487.553505" style="fill: #ffffff; fill-opacity: 0.8; stroke: #1f77b4; stroke-opacity: 0.8"/>
     <use xlink:href="#m69e6eb9c67" x="151.083737" y="246.952691" style="fill: #ffffff; fill-opacity: 0.8; stroke: #1f77b4; stroke-opacity: 0.8"/>
     <use xlink:href="#m69e6eb9c67" x="210.159288" y="221.399085" style="fill: #ffffff; fill-opacity: 0.8; stroke: #1f77b4; stroke-opacity: 0.8"/>
     <use xlink:href="#m69e6eb9c67" x="269.234838" y="211.14921" style="fill: #ffffff; fill-opacity: 0.8; stroke: #1f77b4; stroke-opacity: 0.8"/>
     <use xlink:href="#m69e6eb9c67" x="328.310388" y="205.474149" style="fill: #ffffff; fill-opacity: 0.8; stroke: #1f77b4; stroke-opacity: 0.8"/>
     <use xlink:href="#m69e6eb9c67" x="387.385939" y="202.263118" style="fill: #ffffff; fill-opacity: 0.8; stroke: #1f77b4; stroke-opacity: 0.8"/>
     <use xlink:href="#m69e6eb9c67" x="446.461489" y="200.510719" style="fill: #ffffff; fill-opacity: 0.8; stroke: #1f77b4; stroke-opacity: 0.8"/>
     <use xlink:href="#m69e6eb9c67" x="505.53704" y="199.895369" style="fill: #ffffff; fill-opacity: 0.8; stroke: #1f77b4; stroke-opacity: 0.8"/>
     <use xlink:href="#m69e6eb9c67" x="564.61259" y="199.254302" style="fill: #ffffff; fill-opacity: 0.8; stroke: #1f77b4; stroke-opacity: 0.8"/>
     <use xlink:href="#m69e6eb9c67" x="623.688141" y="198.608415" style="fill: #ffffff; fill-opacity: 0.8; stroke: #1f77b4; stroke-opacity: 0.8"/>
    </g>
   </g>
   <g id="line2d_40">
    <defs>
     <path id="m8dc1411274" d="M 0 2.5 
C 0.663008 2.5 1.29895 2.236584 1.767767 1.767767 
C 2.236584 1.29895 2.5 0.663008 2.5 0 
C 2.5 -0.663008 2.236584 -1.29895 1.767767 -1.767767 
C 1.29895 -2.236584 0.663008 -2.5 0 -2.5 
C -0.663008 -2.5 -1.29895 -2.236584 -1.767767 -1.767767 
C -2.236584 -1.29895 -2.5 -0.663008 -2.5 0 
C -2.5 0.663008 -2.236584 1.29895 -1.767767 1.767767 
C -1.29895 2.236584 -0.663008 2.5 0 2.5 
z
" style="stroke: #ff7f0e; stroke-opacity: 0.8"/>
    </defs>
    <g clip-path="url(#p26fc4c4550)">
     <use xlink:href="#m8dc1411274" x="92.008187" y="494.937501" style="fill: #ffffff; fill-opacity: 0.8; stroke: #ff7f0e; stroke-opacity: 0.8"/>
     <use xlink:href="#m8dc1411274" x="151.083737" y="228.18625" style="fill: #ffffff; fill-opacity: 0.8; stroke: #ff7f0e; stroke-opacity: 0.8"/>
     <use xlink:href="#m8dc1411274" x="210.159288" y="213.72079" style="fill: #ffffff; fill-opacity: 0.8; stroke: #ff7f0e; stroke-opacity: 0.8"/>
     <use xlink:href="#m8dc1411274" x="269.234838" y="209.003991" style="fill: #ffffff; fill-opacity: 0.8; stroke: #ff7f0e; stroke-opacity: 0.8"/>
     <use xlink:href="#m8dc1411274" x="328.310388" y="206.679376" style="fill: #ffffff; fill-opacity: 0.8; stroke: #ff7f0e; stroke-opacity: 0.8"/>
     <use xlink:href="#m8dc1411274" x="387.385939" y="204.199714" style="fill: #ffffff; fill-opacity: 0.8; stroke: #ff7f0e; stroke-opacity: 0.8"/>
     <use xlink:href="#m8dc1411274" x="446.461489" y="202.199927" style="fill: #ffffff; fill-opacity: 0.8; stroke: #ff7f0e; stroke-opacity: 0.8"/>
     <use xlink:href="#m8dc1411274" x="505.53704" y="200.74581" style="fill: #ffffff; fill-opacity: 0.8; stroke: #ff7f0e; stroke-opacity: 0.8"/>
     <use xlink:href="#m8dc1411274" x="564.61259" y="199.554775" style="fill: #ffffff; fill-opacity: 0.8; stroke: #ff7f0e; stroke-opacity: 0.8"/>
     <use xlink:href="#m8dc1411274" x="623.688141" y="198.716185" style="fill: #ffffff; fill-opacity: 0.8; stroke: #ff7f0e; stroke-opacity: 0.8"/>
    </g>
   </g>
   <g id="line2d_41">
    <defs>
     <path id="m525e8c3ea6" d="M 0 2.5 
C 0.663008 2.5 1.29895 2.236584 1.767767 1.767767 
C 2.236584 1.29895 2.5 0.663008 2.5 0 
C 2.5 -0.663008 2.236584 -1.29895 1.767767 -1.767767 
C 1.29895 -2.236584 0.663008 -2.5 0 -2.5 
C -0.663008 -2.5 -1.29895 -2.236584 -1.767767 -1.767767 
C -2.236584 -1.29895 -2.5 -0.663008 -2.5 0 
C -2.5 0.663008 -2.236584 1.29895 -1.767767 1.767767 
C -1.29895 2.236584 -0.663008 2.5 0 2.5 
z
" style="stroke: #2ca02c; stroke-opacity: 0.8"/>
    </defs>
    <g clip-path="url(#p26fc4c4550)">
     <use xlink:href="#m525e8c3ea6" x="92.008187" y="500.634891" style="fill: #ffffff; fill-opacity: 0.8; stroke: #2ca02c; stroke-opacity: 0.8"/>
     <use xlink:href="#m525e8c3ea6" x="151.083737" y="276.045532" style="fill: #ffffff; fill-opacity: 0.8; stroke: #2ca02c; stroke-opacity: 0.8"/>
     <use xlink:href="#m525e8c3ea6" x="210.159288" y="236.813924" style="fill: #ffffff; fill-opacity: 0.8; stroke: #2ca02c; stroke-opacity: 0.8"/>
     <use xlink:href="#m525e8c3ea6" x="269.234838" y="220.91287" style="fill: #ffffff; fill-opacity: 0.8; stroke: #2ca02c; stroke-opacity: 0.8"/>
     <use xlink:href="#m525e8c3ea6" x="328.310388" y="214.276778" style="fill: #ffffff; fill-opacity: 0.8; stroke: #2ca02c; stroke-opacity: 0.8"/>
     <use xlink:href="#m525e8c3ea6" x="387.385939" y="210.621699" style="fill: #ffffff; fill-opacity: 0.8; stroke: #2ca02c; stroke-opacity: 0.8"/>
     <use xlink:href="#m525e8c3ea6" x="446.461489" y="208.256543" style="fill: #ffffff; fill-opacity: 0.8; stroke: #2ca02c; stroke-opacity: 0.8"/>
     <use xlink:href="#m525e8c3ea6" x="505.53704" y="206.593504" style="fill: #ffffff; fill-opacity: 0.8; stroke: #2ca02c; stroke-opacity: 0.8"/>
     <use xlink:href="#m525e8c3ea6" x="564.61259" y="205.416946" style="fill: #ffffff; fill-opacity: 0.8; stroke: #2ca02c; stroke-opacity: 0.8"/>
     <use xlink:href="#m525e8c3ea6" x="623.688141" y="204.636737" style="fill: #ffffff; fill-opacity: 0.8; stroke: #2ca02c; stroke-opacity: 0.8"/>
    </g>
   </g>
   <g id="line2d_42">
    <defs>
     <path id="m4ddd67b173" d="M 0 2.5 
C 0.663008 2.5 1.29895 2.236584 1.767767 1.767767 
C 2.236584 1.29895 2.5 0.663008 2.5 0 
C 2.5 -0.663008 2.236584 -1.29895 1.767767 -1.767767 
C 1.29895 -2.236584 0.663008 -2.5 0 -2.5 
C -0.663008 -2.5 -1.29895 -2.236584 -1.767767 -1.767767 
C -2.236584 -1.29895 -2.5 -0.663008 -2.5 0 
C -2.5 0.663008 -2.236584 1.29895 -1.767767 1.767767 
C -1.29895 2.236584 -0.663008 2.5 0 2.5 
z
" style="stroke: #d62728; stroke-opacity: 0.8"/>
    </defs>
    <g clip-path="url(#p26fc4c4550)">
     <use xlink:href="#m4ddd67b173" x="92.008187" y="479.363559" style="fill: #ffffff; fill-opacity: 0.8; stroke: #d62728; stroke-opacity: 0.8"/>
     <use xlink:href="#m4ddd67b173" x="151.083737" y="232.714053" style="fill: #ffffff; fill-opacity: 0.8; stroke: #d62728; stroke-opacity: 0.8"/>
     <use xlink:href="#m4ddd67b173" x="210.159288" y="214.742136" style="fill: #ffffff; fill-opacity: 0.8; stroke: #d62728; stroke-opacity: 0.8"/>
     <use xlink:href="#m4ddd67b173" x="269.234838" y="208.539093" style="fill: #ffffff; fill-opacity: 0.8; stroke: #d62728; stroke-opacity: 0.8"/>
     <use xlink:href="#m4ddd67b173" x="328.310388" y="205.570951" style="fill: #ffffff; fill-opacity: 0.8; stroke: #d62728; stroke-opacity: 0.8"/>
     <use xlink:href="#m4ddd67b173" x="387.385939" y="203.92707" style="fill: #ffffff; fill-opacity: 0.8; stroke: #d62728; stroke-opacity: 0.8"/>
     <use xlink:href="#m4ddd67b173" x="446.461489" y="202.874473" style="fill: #ffffff; fill-opacity: 0.8; stroke: #d62728; stroke-opacity: 0.8"/>
     <use xlink:href="#m4ddd67b173" x="505.53704" y="202.188231" style="fill: #ffffff; fill-opacity: 0.8; stroke: #d62728; stroke-opacity: 0.8"/>
     <use xlink:href="#m4ddd67b173" x="564.61259" y="201.573395" style="fill: #ffffff; fill-opacity: 0.8; stroke: #d62728; stroke-opacity: 0.8"/>
     <use xlink:href="#m4ddd67b173" x="623.688141" y="201.084784" style="fill: #ffffff; fill-opacity: 0.8; stroke: #d62728; stroke-opacity: 0.8"/>
    </g>
   </g>
   <g id="patch_3">
    <path d="M 62.6181 526.84 
L 62.6181 44.02125 
" style="fill: none; stroke: #1a1a1a; stroke-width: 0.8; stroke-linejoin: miter; stroke-linecap: square"/>
   </g>
   <g id="patch_4">
    <path d="M 709.2 526.84 
L 709.2 44.02125 
" style="fill: none; stroke: #1a1a1a; stroke-width: 0.8; stroke-linejoin: miter; stroke-linecap: square"/>
   </g>
   <g id="patch_5">
    <path d="M 62.6181 526.84 
L 709.2 526.84 
" style="fill: none; stroke: #1a1a1a; stroke-width: 0.8; stroke-linejoin: miter; stroke-linecap: square"/>
   </g>
   <g id="patch_6">
    <path d="M 62.6181 44.02125 
L 709.2 44.02125 
" style="fill: none; stroke: #1a1a1a; stroke-width: 0.8; stroke-linejoin: miter; stroke-linecap: square"/>
   </g>
   <g id="legend_1">
    <g id="patch_7">
     <path d="M 291.7375 94.828125 
L 699.4 94.828125 
Q 702.2 94.828125 702.2 92.028125 
L 702.2 53.82125 
Q 702.2 51.02125 699.4 51.02125 
L 291.7375 51.02125 
Q 288.9375 51.02125 288.9375 53.82125 
L 288.9375 92.028125 
Q 288.9375 94.828125 291.7375 94.828125 
z
" style="fill: #ffffff; opacity: 0.8; stroke: #cccccc; stroke-linejoin: miter"/>
    </g>
    <g id="line2d_43">
     <path d="M 294.5375 61.742187 
L 308.5375 61.742187 
L 322.5375 61.742187 
" style="fill: none; stroke: #1f77b4; stroke-width: 1.5; stroke-linecap: round"/>
    </g>
    <g id="text_16">
     <!-- multisin10-3x64-s05-val -->
     <g style="fill: #262626" transform="translate(333.7375 66.642187)scale(0.14 -0.14)">
      <defs>
       <path id="ArialMT-6d" d="M 422 0 
L 422 3319 
L 925 3319 
L 925 2853 
Q 1081 3097 1340 3245 
Q 1600 3394 1931 3394 
Q 2300 3394 2536 3241 
Q 2772 3088 2869 2813 
Q 3263 3394 3894 3394 
Q 4388 3394 4653 3120 
Q 4919 2847 4919 2278 
L 4919 0 
L 4359 0 
L 4359 2091 
Q 4359 2428 4304 2576 
Q 4250 2725 4106 2815 
Q 3963 2906 3769 2906 
Q 3419 2906 3187 2673 
Q 2956 2441 2956 1928 
L 2956 0 
L 2394 0 
L 2394 2156 
Q 2394 2531 2256 2718 
Q 2119 2906 1806 2906 
Q 1569 2906 1367 2781 
Q 1166 2656 1075 2415 
Q 984 2175 984 1722 
L 984 0 
L 422 0 
z
" transform="scale(0.015625)"/>
       <path id="ArialMT-75" d="M 2597 0 
L 2597 488 
Q 2209 -75 1544 -75 
Q 1250 -75 995 37 
Q 741 150 617 320 
Q 494 491 444 738 
Q 409 903 409 1263 
L 409 3319 
L 972 3319 
L 972 1478 
Q 972 1038 1006 884 
Q 1059 663 1231 536 
Q 1403 409 1656 409 
Q 1909 409 2131 539 
Q 2353 669 2445 892 
Q 2538 1116 2538 1541 
L 2538 3319 
L 3100 3319 
L 3100 0 
L 2597 0 
z
" transform="scale(0.015625)"/>
       <path id="ArialMT-74" d="M 1650 503 
L 1731 6 
Q 1494 -44 1306 -44 
Q 1000 -44 831 53 
Q 663 150 594 308 
Q 525 466 525 972 
L 525 2881 
L 113 2881 
L 113 3319 
L 525 3319 
L 525 4141 
L 1084 4478 
L 1084 3319 
L 1650 3319 
L 1650 2881 
L 1084 2881 
L 1084 941 
Q 1084 700 1114 631 
Q 1144 563 1211 522 
Q 1278 481 1403 481 
Q 1497 481 1650 503 
z
" transform="scale(0.015625)"/>
       <path id="ArialMT-6e" d="M 422 0 
L 422 3319 
L 928 3319 
L 928 2847 
Q 1294 3394 1984 3394 
Q 2284 3394 2536 3286 
Q 2788 3178 2913 3003 
Q 3038 2828 3088 2588 
Q 3119 2431 3119 2041 
L 3119 0 
L 2556 0 
L 2556 2019 
Q 2556 2363 2490 2533 
Q 2425 2703 2258 2804 
Q 2091 2906 1866 2906 
Q 1506 2906 1245 2678 
Q 984 2450 984 1813 
L 984 0 
L 422 0 
z
" transform="scale(0.015625)"/>
       <path id="ArialMT-2d" d="M 203 1375 
L 203 1941 
L 1931 1941 
L 1931 1375 
L 203 1375 
z
" transform="scale(0.015625)"/>
       <path id="ArialMT-33" d="M 269 1209 
L 831 1284 
Q 928 806 1161 595 
Q 1394 384 1728 384 
Q 2125 384 2398 659 
Q 2672 934 2672 1341 
Q 2672 1728 2419 1979 
Q 2166 2231 1775 2231 
Q 1616 2231 1378 2169 
L 1441 2663 
Q 1497 2656 1531 2656 
Q 1891 2656 2178 2843 
Q 2466 3031 2466 3422 
Q 2466 3731 2256 3934 
Q 2047 4138 1716 4138 
Q 1388 4138 1169 3931 
Q 950 3725 888 3313 
L 325 3413 
Q 428 3978 793 4289 
Q 1159 4600 1703 4600 
Q 2078 4600 2393 4439 
Q 2709 4278 2876 4000 
Q 3044 3722 3044 3409 
Q 3044 3113 2884 2869 
Q 2725 2625 2413 2481 
Q 2819 2388 3044 2092 
Q 3269 1797 3269 1353 
Q 3269 753 2831 336 
Q 2394 -81 1725 -81 
Q 1122 -81 723 278 
Q 325 638 269 1209 
z
" transform="scale(0.015625)"/>
       <path id="ArialMT-78" d="M 47 0 
L 1259 1725 
L 138 3319 
L 841 3319 
L 1350 2541 
Q 1494 2319 1581 2169 
Q 1719 2375 1834 2534 
L 2394 3319 
L 3066 3319 
L 1919 1756 
L 3153 0 
L 2463 0 
L 1781 1031 
L 1600 1309 
L 728 0 
L 47 0 
z
" transform="scale(0.015625)"/>
       <path id="ArialMT-36" d="M 3184 3459 
L 2625 3416 
Q 2550 3747 2413 3897 
Q 2184 4138 1850 4138 
Q 1581 4138 1378 3988 
Q 1113 3794 959 3422 
Q 806 3050 800 2363 
Q 1003 2672 1297 2822 
Q 1591 2972 1913 2972 
Q 2475 2972 2870 2558 
Q 3266 2144 3266 1488 
Q 3266 1056 3080 686 
Q 2894 316 2569 119 
Q 2244 -78 1831 -78 
Q 1128 -78 684 439 
Q 241 956 241 2144 
Q 241 3472 731 4075 
Q 1159 4600 1884 4600 
Q 2425 4600 2770 4297 
Q 3116 3994 3184 3459 
z
M 888 1484 
Q 888 1194 1011 928 
Q 1134 663 1356 523 
Q 1578 384 1822 384 
Q 2178 384 2434 671 
Q 2691 959 2691 1453 
Q 2691 1928 2437 2201 
Q 2184 2475 1800 2475 
Q 1419 2475 1153 2201 
Q 888 1928 888 1484 
z
" transform="scale(0.015625)"/>
       <path id="ArialMT-34" d="M 2069 0 
L 2069 1097 
L 81 1097 
L 81 1613 
L 2172 4581 
L 2631 4581 
L 2631 1613 
L 3250 1613 
L 3250 1097 
L 2631 1097 
L 2631 0 
L 2069 0 
z
M 2069 1613 
L 2069 3678 
L 634 1613 
L 2069 1613 
z
" transform="scale(0.015625)"/>
       <path id="ArialMT-76" d="M 1344 0 
L 81 3319 
L 675 3319 
L 1388 1331 
Q 1503 1009 1600 663 
Q 1675 925 1809 1294 
L 2547 3319 
L 3125 3319 
L 1869 0 
L 1344 0 
z
" transform="scale(0.015625)"/>
       <path id="ArialMT-61" d="M 2588 409 
Q 2275 144 1986 34 
Q 1697 -75 1366 -75 
Q 819 -75 525 192 
Q 231 459 231 875 
Q 231 1119 342 1320 
Q 453 1522 633 1644 
Q 813 1766 1038 1828 
Q 1203 1872 1538 1913 
Q 2219 1994 2541 2106 
Q 2544 2222 2544 2253 
Q 2544 2597 2384 2738 
Q 2169 2928 1744 2928 
Q 1347 2928 1158 2789 
Q 969 2650 878 2297 
L 328 2372 
Q 403 2725 575 2942 
Q 747 3159 1072 3276 
Q 1397 3394 1825 3394 
Q 2250 3394 2515 3294 
Q 2781 3194 2906 3042 
Q 3031 2891 3081 2659 
Q 3109 2516 3109 2141 
L 3109 1391 
Q 3109 606 3145 398 
Q 3181 191 3288 0 
L 2700 0 
Q 2613 175 2588 409 
z
M 2541 1666 
Q 2234 1541 1622 1453 
Q 1275 1403 1131 1340 
Q 988 1278 909 1158 
Q 831 1038 831 891 
Q 831 666 1001 516 
Q 1172 366 1500 366 
Q 1825 366 2078 508 
Q 2331 650 2450 897 
Q 2541 1088 2541 1459 
L 2541 1666 
z
" transform="scale(0.015625)"/>
      </defs>
      <use xlink:href="#ArialMT-6d"/>
      <use xlink:href="#ArialMT-75" x="83.300781"/>
      <use xlink:href="#ArialMT-6c" x="138.916016"/>
      <use xlink:href="#ArialMT-74" x="161.132812"/>
      <use xlink:href="#ArialMT-69" x="188.916016"/>
      <use xlink:href="#ArialMT-73" x="211.132812"/>
      <use xlink:href="#ArialMT-69" x="261.132812"/>
      <use xlink:href="#ArialMT-6e" x="283.349609"/>
      <use xlink:href="#ArialMT-31" x="338.964844"/>
      <use xlink:href="#ArialMT-30" x="394.580078"/>
      <use xlink:href="#ArialMT-2d" x="450.195312"/>
      <use xlink:href="#ArialMT-33" x="483.496094"/>
      <use xlink:href="#ArialMT-78" x="539.111328"/>
      <use xlink:href="#ArialMT-36" x="589.111328"/>
      <use xlink:href="#ArialMT-34" x="644.726562"/>
      <use xlink:href="#ArialMT-2d" x="700.341797"/>
      <use xlink:href="#ArialMT-73" x="733.642578"/>
      <use xlink:href="#ArialMT-30" x="783.642578"/>
      <use xlink:href="#ArialMT-35" x="839.257812"/>
      <use xlink:href="#ArialMT-2d" x="894.873047"/>
      <use xlink:href="#ArialMT-76" x="928.173828"/>
      <use xlink:href="#ArialMT-61" x="978.173828"/>
      <use xlink:href="#ArialMT-6c" x="1033.789062"/>
     </g>
    </g>
    <g id="line2d_44">
     <path d="M 294.5375 81.545625 
L 308.5375 81.545625 
L 322.5375 81.545625 
" style="fill: none; stroke: #ff7f0e; stroke-width: 1.5; stroke-linecap: round"/>
    </g>
    <g id="text_17">
     <!-- multisin10-3x64-sl-val -->
     <g style="fill: #262626" transform="translate(333.7375 86.445625)scale(0.14 -0.14)">
      <use xlink:href="#ArialMT-6d"/>
      <use xlink:href="#ArialMT-75" x="83.300781"/>
      <use xlink:href="#ArialMT-6c" x="138.916016"/>
      <use xlink:href="#ArialMT-74" x="161.132812"/>
      <use xlink:href="#ArialMT-69" x="188.916016"/>
      <use xlink:href="#ArialMT-73" x="211.132812"/>
      <use xlink:href="#ArialMT-69" x="261.132812"/>
      <use xlink:href="#ArialMT-6e" x="283.349609"/>
      <use xlink:href="#ArialMT-31" x="338.964844"/>
      <use xlink:href="#ArialMT-30" x="394.580078"/>
      <use xlink:href="#ArialMT-2d" x="450.195312"/>
      <use xlink:href="#ArialMT-33" x="483.496094"/>
      <use xlink:href="#ArialMT-78" x="539.111328"/>
      <use xlink:href="#ArialMT-36" x="589.111328"/>
      <use xlink:href="#ArialMT-34" x="644.726562"/>
      <use xlink:href="#ArialMT-2d" x="700.341797"/>
      <use xlink:href="#ArialMT-73" x="733.642578"/>
      <use xlink:href="#ArialMT-6c" x="783.642578"/>
      <use xlink:href="#ArialMT-2d" x="805.859375"/>
      <use xlink:href="#ArialMT-76" x="839.160156"/>
      <use xlink:href="#ArialMT-61" x="889.160156"/>
      <use xlink:href="#ArialMT-6c" x="944.775391"/>
     </g>
    </g>
    <g id="line2d_45">
     <path d="M 509.56875 61.742187 
L 523.56875 61.742187 
L 537.56875 61.742187 
" style="fill: none; stroke: #2ca02c; stroke-width: 1.5; stroke-linecap: round"/>
    </g>
    <g id="text_18">
     <!-- multisin10-2x32-s05-val -->
     <g style="fill: #262626" transform="translate(548.76875 66.642187)scale(0.14 -0.14)">
      <use xlink:href="#ArialMT-6d"/>
      <use xlink:href="#ArialMT-75" x="83.300781"/>
      <use xlink:href="#ArialMT-6c" x="138.916016"/>
      <use xlink:href="#ArialMT-74" x="161.132812"/>
      <use xlink:href="#ArialMT-69" x="188.916016"/>
      <use xlink:href="#ArialMT-73" x="211.132812"/>
      <use xlink:href="#ArialMT-69" x="261.132812"/>
      <use xlink:href="#ArialMT-6e" x="283.349609"/>
      <use xlink:href="#ArialMT-31" x="338.964844"/>
      <use xlink:href="#ArialMT-30" x="394.580078"/>
      <use xlink:href="#ArialMT-2d" x="450.195312"/>
      <use xlink:href="#ArialMT-32" x="483.496094"/>
      <use xlink:href="#ArialMT-78" x="539.111328"/>
      <use xlink:href="#ArialMT-33" x="589.111328"/>
      <use xlink:href="#ArialMT-32" x="644.726562"/>
      <use xlink:href="#ArialMT-2d" x="700.341797"/>
      <use xlink:href="#ArialMT-73" x="733.642578"/>
      <use xlink:href="#ArialMT-30" x="783.642578"/>
      <use xlink:href="#ArialMT-35" x="839.257812"/>
      <use xlink:href="#ArialMT-2d" x="894.873047"/>
      <use xlink:href="#ArialMT-76" x="928.173828"/>
      <use xlink:href="#ArialMT-61" x="978.173828"/>
      <use xlink:href="#ArialMT-6c" x="1033.789062"/>
     </g>
    </g>
    <g id="line2d_46">
     <path d="M 509.56875 81.545625 
L 523.56875 81.545625 
L 537.56875 81.545625 
" style="fill: none; stroke: #d62728; stroke-width: 1.5; stroke-linecap: round"/>
    </g>
    <g id="text_19">
     <!-- multisin10-2x32-sl-val -->
     <g style="fill: #262626" transform="translate(548.76875 86.445625)scale(0.14 -0.14)">
      <use xlink:href="#ArialMT-6d"/>
      <use xlink:href="#ArialMT-75" x="83.300781"/>
      <use xlink:href="#ArialMT-6c" x="138.916016"/>
      <use xlink:href="#ArialMT-74" x="161.132812"/>
      <use xlink:href="#ArialMT-69" x="188.916016"/>
      <use xlink:href="#ArialMT-73" x="211.132812"/>
      <use xlink:href="#ArialMT-69" x="261.132812"/>
      <use xlink:href="#ArialMT-6e" x="283.349609"/>
      <use xlink:href="#ArialMT-31" x="338.964844"/>
      <use xlink:href="#ArialMT-30" x="394.580078"/>
      <use xlink:href="#ArialMT-2d" x="450.195312"/>
      <use xlink:href="#ArialMT-32" x="483.496094"/>
      <use xlink:href="#ArialMT-78" x="539.111328"/>
      <use xlink:href="#ArialMT-33" x="589.111328"/>
      <use xlink:href="#ArialMT-32" x="644.726562"/>
      <use xlink:href="#ArialMT-2d" x="700.341797"/>
      <use xlink:href="#ArialMT-73" x="733.642578"/>
      <use xlink:href="#ArialMT-6c" x="783.642578"/>
      <use xlink:href="#ArialMT-2d" x="805.859375"/>
      <use xlink:href="#ArialMT-76" x="839.160156"/>
      <use xlink:href="#ArialMT-61" x="889.160156"/>
      <use xlink:href="#ArialMT-6c" x="944.775391"/>
     </g>
    </g>
   </g>
  </g>
  <g id="text_20">
   <!-- In Domain Log Likelihood - misspecified tensin models -->
   <g style="fill: #262626" transform="translate(70.535625 28.99125)scale(0.24 -0.24)">
    <defs>
     <path id="ArialMT-49" d="M 597 0 
L 597 4581 
L 1203 4581 
L 1203 0 
L 597 0 
z
" transform="scale(0.015625)"/>
     <path id="ArialMT-44" d="M 494 0 
L 494 4581 
L 2072 4581 
Q 2606 4581 2888 4516 
Q 3281 4425 3559 4188 
Q 3922 3881 4101 3404 
Q 4281 2928 4281 2316 
Q 4281 1794 4159 1391 
Q 4038 988 3847 723 
Q 3656 459 3429 307 
Q 3203 156 2883 78 
Q 2563 0 2147 0 
L 494 0 
z
M 1100 541 
L 2078 541 
Q 2531 541 2789 625 
Q 3047 709 3200 863 
Q 3416 1078 3536 1442 
Q 3656 1806 3656 2325 
Q 3656 3044 3420 3430 
Q 3184 3816 2847 3947 
Q 2603 4041 2063 4041 
L 1100 4041 
L 1100 541 
z
" transform="scale(0.015625)"/>
     <path id="ArialMT-4c" d="M 469 0 
L 469 4581 
L 1075 4581 
L 1075 541 
L 3331 541 
L 3331 0 
L 469 0 
z
" transform="scale(0.015625)"/>
     <path id="ArialMT-66" d="M 556 0 
L 556 2881 
L 59 2881 
L 59 3319 
L 556 3319 
L 556 3672 
Q 556 4006 616 4169 
Q 697 4388 901 4523 
Q 1106 4659 1475 4659 
Q 1713 4659 2000 4603 
L 1916 4113 
Q 1741 4144 1584 4144 
Q 1328 4144 1222 4034 
Q 1116 3925 1116 3625 
L 1116 3319 
L 1763 3319 
L 1763 2881 
L 1116 2881 
L 1116 0 
L 556 0 
z
" transform="scale(0.015625)"/>
    </defs>
    <use xlink:href="#ArialMT-49"/>
    <use xlink:href="#ArialMT-6e" x="27.783203"/>
    <use xlink:href="#ArialMT-20" x="83.398438"/>
    <use xlink:href="#ArialMT-44" x="111.181641"/>
    <use xlink:href="#ArialMT-6f" x="183.398438"/>
    <use xlink:href="#ArialMT-6d" x="239.013672"/>
    <use xlink:href="#ArialMT-61" x="322.314453"/>
    <use xlink:href="#ArialMT-69" x="377.929688"/>
    <use xlink:href="#ArialMT-6e" x="400.146484"/>
    <use xlink:href="#ArialMT-20" x="455.761719"/>
    <use xlink:href="#ArialMT-4c" x="483.544922"/>
    <use xlink:href="#ArialMT-6f" x="539.160156"/>
    <use xlink:href="#ArialMT-67" x="594.775391"/>
    <use xlink:href="#ArialMT-20" x="650.390625"/>
    <use xlink:href="#ArialMT-4c" x="678.173828"/>
    <use xlink:href="#ArialMT-69" x="733.789062"/>
    <use xlink:href="#ArialMT-6b" x="756.005859"/>
    <use xlink:href="#ArialMT-65" x="806.005859"/>
    <use xlink:href="#ArialMT-6c" x="861.621094"/>
    <use xlink:href="#ArialMT-69" x="883.837891"/>
    <use xlink:href="#ArialMT-68" x="906.054688"/>
    <use xlink:href="#ArialMT-6f" x="961.669922"/>
    <use xlink:href="#ArialMT-6f" x="1017.285156"/>
    <use xlink:href="#ArialMT-64" x="1072.900391"/>
    <use xlink:href="#ArialMT-20" x="1128.515625"/>
    <use xlink:href="#ArialMT-2d" x="1156.298828"/>
    <use xlink:href="#ArialMT-20" x="1189.599609"/>
    <use xlink:href="#ArialMT-6d" x="1217.382812"/>
    <use xlink:href="#ArialMT-69" x="1300.683594"/>
    <use xlink:href="#ArialMT-73" x="1322.900391"/>
    <use xlink:href="#ArialMT-73" x="1372.900391"/>
    <use xlink:href="#ArialMT-70" x="1422.900391"/>
    <use xlink:href="#ArialMT-65" x="1478.515625"/>
    <use xlink:href="#ArialMT-63" x="1534.130859"/>
    <use xlink:href="#ArialMT-69" x="1584.130859"/>
    <use xlink:href="#ArialMT-66" x="1606.347656"/>
    <use xlink:href="#ArialMT-69" x="1634.130859"/>
    <use xlink:href="#ArialMT-65" x="1656.347656"/>
    <use xlink:href="#ArialMT-64" x="1711.962891"/>
    <use xlink:href="#ArialMT-20" x="1767.578125"/>
    <use xlink:href="#ArialMT-74" x="1795.361328"/>
    <use xlink:href="#ArialMT-65" x="1823.144531"/>
    <use xlink:href="#ArialMT-6e" x="1878.759766"/>
    <use xlink:href="#ArialMT-73" x="1934.375"/>
    <use xlink:href="#ArialMT-69" x="1984.375"/>
    <use xlink:href="#ArialMT-6e" x="2006.591797"/>
    <use xlink:href="#ArialMT-20" x="2062.207031"/>
    <use xlink:href="#ArialMT-6d" x="2089.990234"/>
    <use xlink:href="#ArialMT-6f" x="2173.291016"/>
    <use xlink:href="#ArialMT-64" x="2228.90625"/>
    <use xlink:href="#ArialMT-65" x="2284.521484"/>
    <use xlink:href="#ArialMT-6c" x="2340.136719"/>
    <use xlink:href="#ArialMT-73" x="2362.353516"/>
   </g>
  </g>
 </g>
 <defs>
  <clipPath id="p26fc4c4550">
   <rect x="62.6181" y="44.02125" width="646.5819" height="482.81875"/>
  </clipPath>
 </defs>
</svg>
